<?xml version="1.0" standalone="no"?>
<!DOCTYPE svg PUBLIC "-//W3C//DTD SVG 20010904//EN"
 "http://www.w3.org/TR/2001/REC-SVG-20010904/DTD/svg10.dtd">
<svg version="1.0" xmlns="http://www.w3.org/2000/svg"
 width="512.000000pt" height="512.000000pt" viewBox="0 0 512.000000 512.000000"
 preserveAspectRatio="xMidYMid meet">
<metadata>
Created by potrace 1.11, written by Peter Selinger 2001-2013
</metadata>
<g transform="translate(0.000000,512.000000) scale(0.100000,-0.100000)"
fill="#000000" stroke="none">
<path d="M0 2560 l0 -2560 2560 0 2560 0 0 2560 0 2560 -2560 0 -2560 0 0
-2560z m2844 1744 c242 -38 493 -150 853 -380 l63 -40 -196 -252 -195 -252
-72 41 c-299 169 -511 234 -741 227 -107 -3 -128 -7 -184 -32 -118 -54 -192
-164 -192 -283 0 -66 24 -116 79 -166 53 -48 98 -70 326 -160 288 -113 640
-263 735 -313 361 -191 537 -469 517 -817 -28 -478 -313 -842 -761 -971 -156
-46 -269 -60 -461 -60 -199 1 -304 14 -495 65 -250 66 -540 196 -788 352 l-62
39 38 54 c21 29 97 125 168 211 71 87 147 181 167 210 34 47 41 51 62 43 14
-5 127 -59 252 -119 351 -168 443 -195 678 -196 159 0 219 14 295 69 106 77
143 246 83 374 -22 47 -95 118 -164 159 -30 18 -132 62 -226 97 -226 85 -648
258 -733 301 -230 116 -391 316 -452 561 -30 123 -30 351 1 467 71 267 252
502 483 627 237 128 633 190 922 144z"/>
</g>
</svg>
