<svg width="14" height="4" viewBox="0 0 14 4" fill="none" xmlns="http://www.w3.org/2000/svg">
<path d="M1.99967 0.333328C1.08301 0.333328 0.333008 1.08333 0.333008 1.99999C0.333008 2.91666 1.08301 3.66666 1.99967 3.66666C2.91634 3.66666 3.66634 2.91666 3.66634 1.99999C3.66634 1.08333 2.91634 0.333328 1.99967 0.333328ZM11.9997 0.333328C11.083 0.333328 10.333 1.08333 10.333 1.99999C10.333 2.91666 11.083 3.66666 11.9997 3.66666C12.9163 3.66666 13.6663 2.91666 13.6663 1.99999C13.6663 1.08333 12.9163 0.333328 11.9997 0.333328ZM6.99967 0.333328C6.08301 0.333328 5.33301 1.08333 5.33301 1.99999C5.33301 2.91666 6.08301 3.66666 6.99967 3.66666C7.91634 3.66666 8.66634 2.91666 8.66634 1.99999C8.66634 1.08333 7.91634 0.333328 6.99967 0.333328Z" fill="#C5C6C7"/>
</svg>
