<svg width="80" height="80" viewBox="0 0 80 80" fill="none" xmlns="http://www.w3.org/2000/svg">
    <path d="M78.8281 60.1205H39.9153C39.9162 60.0935 39.9194 60.0671 39.9194 60.0399V50.0197C39.9194 48.6829 38.8319 47.5954 37.495 47.5954H34.9081C34.8961 45.7293 33.8552 44.0544 32.1842 43.219L27.4383 40.8461C27.4108 40.8324 27.3938 40.8047 27.3938 40.7741L27.3941 38.389C29.3422 37.0476 30.7211 34.9269 31.0661 32.4382C31.9423 30.924 32.4041 29.2137 32.4041 27.4746C32.4041 24.2316 30.8425 21.3469 28.4323 19.5316C28.5736 19.0612 28.6466 18.5758 28.6466 18.0807C28.6466 15.0172 25.8733 12.5249 22.4647 12.5249C19.0559 12.5249 16.2827 15.0172 16.2827 18.0807C16.2827 18.5765 16.3548 19.0619 16.4961 19.5322C14.0864 21.3477 12.5252 24.2321 12.5252 27.4747C12.5252 29.2138 12.9872 30.9243 13.8633 32.4383C14.2083 34.9271 15.587 37.0477 17.5352 38.3891V40.7743C17.5352 40.8049 17.5181 40.8326 17.4906 40.8463L12.7448 43.2193C11.0641 44.0596 10.02 45.7491 10.02 47.6282V57.5351C10.02 58.4829 10.2895 59.3685 10.7548 60.1208H1.17188C0.524687 60.1208 0 60.6455 0 61.2927C0 61.9399 0.524687 62.4646 1.17188 62.4646H2.505V73.8179C2.505 74.4651 3.02969 74.9897 3.67687 74.9897C4.32406 74.9897 4.84875 74.4651 4.84875 73.8179V67.4746H75.1512V73.8179C75.1512 74.4651 75.6758 74.9897 76.3231 74.9897C76.9705 74.9897 77.495 74.4651 77.495 73.8179V62.4646H78.8281C79.4755 62.4646 80 61.9399 80 61.2927C80 60.6455 79.4755 60.1205 78.8281 60.1205ZM37.495 49.9391C37.5394 49.9391 37.5756 49.9752 37.5756 50.0197V60.0399C37.5756 60.0844 37.5395 60.1205 37.495 60.1205H22.4648C22.4203 60.1205 22.3842 60.0844 22.3842 60.0399V50.0197C22.3842 49.9752 22.4203 49.9391 22.4648 49.9391H37.495ZM22.4647 14.8685C24.5811 14.8685 26.3028 16.3094 26.3028 18.0805C26.3028 18.1547 26.2969 18.2283 26.2909 18.3018C25.1125 17.8083 23.82 17.5349 22.4647 17.5349C21.1095 17.5349 19.8172 17.8083 18.6389 18.3016C18.633 18.2282 18.6264 18.1547 18.6264 18.0805C18.6264 16.3094 20.3483 14.8685 22.4647 14.8685ZM16.1611 31.9235C16.1423 31.7508 16.0856 31.5846 15.9947 31.4365C15.2581 30.2369 14.8689 28.8669 14.8689 27.4744C14.8689 23.286 18.2764 19.8787 22.4647 19.8787C26.653 19.8787 30.0605 23.2862 30.0605 27.4744C30.0605 28.2818 29.9288 29.0815 29.6752 29.8451C26.3477 26.4646 20.4941 25.1397 20.2117 25.0776C19.8561 24.9993 19.4833 25.0643 19.2044 25.299C18.9287 25.5308 18.7747 25.8508 18.7872 26.2099C18.7783 26.3237 18.6897 27.0871 17.8784 27.8985C17.4208 28.3562 17.4208 29.0982 17.8784 29.5557C18.3361 30.0133 19.0781 30.0133 19.5356 29.5557C20.1947 28.8966 20.5819 28.2277 20.8091 27.6629C22.7809 28.2487 26.8737 29.728 28.7105 32.3246C28.1892 35.3447 25.573 37.5752 22.4647 37.5752C19.22 37.5752 16.5102 35.1455 16.1611 31.9235ZM25.3347 41.9182L24.2458 42.953C23.2472 43.9021 21.6823 43.9021 20.6834 42.953L19.5942 41.9179C19.778 41.5735 19.8789 41.183 19.8789 40.774V39.5268C20.6973 39.7808 21.5656 39.919 22.4647 39.919C23.3636 39.919 24.2319 39.7808 25.0502 39.5269L25.05 40.7738C25.05 41.183 25.1509 41.5737 25.3347 41.9182ZM12.3639 47.628C12.3639 46.6424 12.9116 45.7563 13.7931 45.3154L17.7075 43.3582L19.0689 44.6521C20.0209 45.5569 21.2428 46.0093 22.4645 46.0093C23.6864 46.0093 24.9083 45.5569 25.8603 44.6521L27.2216 43.3585L31.1359 45.3155C32.0078 45.7513 32.5522 46.623 32.5642 47.5955H22.4645C21.1277 47.5955 20.0402 48.683 20.0402 50.0199V55.1107H17.3738V50.3158C17.3738 49.6687 16.8491 49.144 16.2019 49.144C15.5547 49.144 15.03 49.6687 15.03 50.3158V56.2826C15.03 56.9297 15.5547 57.4544 16.2019 57.4544H20.0402V60.0402C20.0402 60.0674 20.0433 60.0938 20.0442 60.1208H14.9495C13.5238 60.1205 12.3639 58.9607 12.3639 57.5349V47.628ZM75.1512 65.1307H4.84875V62.4644H75.1512V65.1307Z" fill="#222426"/>
    <path d="M31.2323 53.8584H28.7273C28.0801 53.8584 27.5554 54.3831 27.5554 55.0303C27.5554 55.6775 28.0801 56.2021 28.7273 56.2021H31.2323C31.8795 56.2021 32.4042 55.6775 32.4042 55.0303C32.4042 54.3831 31.8795 53.8584 31.2323 53.8584Z" fill="#222426"/>
    <path d="M72.5658 5.01025H42.5051C39.7869 5.01025 37.5757 7.2215 37.5757 9.93963V29.9799C37.5757 32.6981 39.7869 34.9093 42.5051 34.9093H44.7618L43.0387 41.8012C42.853 42.5435 43.143 43.2999 43.7776 43.7279C44.0857 43.9357 44.4351 44.0393 44.7838 44.0393C45.1533 44.0393 45.5224 43.9231 45.8408 43.6915L57.9163 34.9093H72.5658C75.284 34.9093 77.4954 32.6981 77.4954 29.9799V9.93963C77.4954 7.2215 75.2841 5.01025 72.5658 5.01025ZM75.1516 29.9799C75.1516 31.4057 73.9916 32.5656 72.5658 32.5656H57.5354C57.2877 32.5656 57.0465 32.644 56.8461 32.7898L45.6769 40.9129L47.3997 34.0218C47.4872 33.6717 47.4087 33.3009 47.1865 33.0163C46.9644 32.732 46.6236 32.5657 46.2629 32.5657H42.5052C41.0794 32.5657 39.9196 31.4059 39.9196 29.9801V9.93963H39.9194C39.9194 8.51385 41.0793 7.354 42.5051 7.354H72.5658C73.9916 7.354 75.1516 8.51385 75.1516 9.93963V29.9799Z" fill="#222426"/>
    <path d="M50.0197 12.5249H46.2627C45.6154 12.5249 45.0908 13.0496 45.0908 13.6968C45.0908 14.344 45.6154 14.8687 46.2627 14.8687H50.0197C50.6671 14.8687 51.1916 14.344 51.1916 13.6968C51.1916 13.0496 50.6671 12.5249 50.0197 12.5249Z" fill="#222426"/>
    <path d="M68.8083 12.5249H55.0305C54.3832 12.5249 53.8586 13.0496 53.8586 13.6968C53.8586 14.344 54.3833 14.8687 55.0305 14.8687H68.8083C69.4557 14.8687 69.9802 14.344 69.9802 13.6968C69.9802 13.0496 69.4557 12.5249 68.8083 12.5249Z" fill="#222426"/>
    <path d="M68.8083 18.7876H46.2627C45.6154 18.7876 45.0908 19.3123 45.0908 19.9595C45.0908 20.6067 45.6154 21.1313 46.2627 21.1313H68.8083C69.4557 21.1313 69.9802 20.6067 69.9802 19.9595C69.9802 19.3123 69.4557 18.7876 68.8083 18.7876Z" fill="#222426"/>
    <path d="M60.0404 25.0503H46.2627C45.6154 25.0503 45.0908 25.575 45.0908 26.2222C45.0908 26.8694 45.6154 27.394 46.2627 27.394H60.0404C60.6877 27.394 61.2122 26.8694 61.2122 26.2222C61.2122 25.575 60.6877 25.0503 60.0404 25.0503Z" fill="#222426"/>
    <path d="M68.8082 25.0503H65.051C64.4037 25.0503 63.8792 25.575 63.8792 26.2222C63.8792 26.8694 64.4037 27.394 65.051 27.394H68.8082C69.4556 27.394 69.9801 26.8694 69.9801 26.2222C69.9801 25.575 69.4556 25.0503 68.8082 25.0503Z" fill="#222426"/>
</svg>
