<svg width="80" height="80" viewBox="0 0 80 80" fill="none" xmlns="http://www.w3.org/2000/svg">
    <g clip-path="url(#clip0)">
        <path d="M42.5 10H52.5V12.5H42.5V10Z" fill="#222426"/>
        <path d="M42.5 15H52.5V17.5H42.5V15Z" fill="#222426"/>
        <path d="M42.5 20H52.5V22.5H42.5V20Z" fill="#222426"/>
        <path d="M42.5 25H52.5V27.5H42.5V25Z" fill="#222426"/>
        <path d="M25 30H52.5V32.5H25V30Z" fill="#222426"/>
        <path d="M25 35H37.5V37.5H25V35Z" fill="#222426"/>
        <path d="M40 10H25V27.5H40V10ZM37.5 25H27.5V12.5H37.5V25Z" fill="#222426"/>
        <path d="M73.7501 9.85229L70.0001 7.97729V6.25C69.9958 2.79968 67.2004 0.00427247 63.7501 0H23.7501C20.2998 0.00427247 17.5044 2.79968 17.5001 6.25V49.5099L0.333984 68.0115L2.16626 69.7113L19.5002 51.0339L32.8138 44.9811L47.2889 44.0161C47.9896 43.9673 48.6793 44.2126 49.1914 44.6936C49.731 45.2087 50.0251 45.9296 50.0001 46.6748C50.0038 47.9236 49.0559 48.9697 47.8126 49.0887L37.5001 50.1251V56.1475L52.6252 57.5226L61.8324 54.8975L67.6912 50.34C69.991 48.559 73.1709 48.4436 75.594 50.0525L64.3641 60.1587L49.7975 65H26.9478L15.2113 77.9089L17.0613 79.5911L28.0525 67.5H50.2028L65.6428 62.3535L79.3165 50.0476L78.3839 49.1162C75.0789 45.8203 69.8396 45.4944 66.1512 48.3551L60.674 52.6147L60.0001 52.8076V25H73.7501C77.2004 24.9957 79.9958 22.2003 80.0001 18.75V6.72729L73.7501 9.85229ZM57.5001 6.25V53.5211L52.3811 54.9835L40.0001 53.8586V52.381L48.0616 51.5778C50.616 51.319 52.5465 49.1449 52.5001 46.5778C52.5056 45.1782 51.9301 43.8397 50.9114 42.8809C49.8921 41.922 48.5212 41.4288 47.1254 41.5186L32.1962 42.5189L20.0001 48.0585V6.25C20.0001 4.17908 21.6792 2.5 23.7501 2.5H58.7825C57.9554 3.57544 57.505 4.89319 57.5001 6.25ZM60.0001 22.5V6.25C60.0001 4.17908 61.6792 2.5 63.7501 2.5C65.821 2.5 67.5001 4.17908 67.5001 6.25V18.75C67.505 20.1068 67.9554 21.4246 68.7825 22.5H60.0001ZM77.5001 18.75C77.5001 20.8209 75.821 22.5 73.7501 22.5C71.6792 22.5 70.0001 20.8209 70.0001 18.75V10.7727L73.7501 12.6477L77.5001 10.7727V18.75Z" fill="#222426"/>
        <path d="M0 0H2.5V15H0V0Z" fill="#222426"/>
        <path d="M5 0H7.5V10H5V0Z" fill="#222426"/>
        <path d="M10 0H12.5V5H10V0Z" fill="#222426"/>
        <path d="M77.5 65H80V80H77.5V65Z" fill="#222426"/>
        <path d="M72.5 70H75V80H72.5V70Z" fill="#222426"/>
        <path d="M67.5 75H70V80H67.5V75Z" fill="#222426"/>
    </g>
    <defs>
        <clipPath id="clip0">
            <rect width="80" height="80" fill="white"/>
        </clipPath>
    </defs>
</svg>
