<svg width="80" height="80" viewBox="0 0 80 80" fill="none" xmlns="http://www.w3.org/2000/svg">
    <g clip-path="url(#clip0)">
        <path d="M77.7624 31.1463L65.8184 23.9759C65.8221 23.9374 65.8239 23.8983 65.8239 23.8587V1.18103C65.8239 0.528565 65.2954 0 64.6429 0H59.4457C58.7939 0 58.2647 0.528565 58.2647 1.18103C58.2647 1.8335 58.7939 2.36206 59.4457 2.36206H63.4619V22.5611L52.9003 16.2207H58.3441C58.9959 16.2207 59.5251 15.6922 59.5251 15.0397C59.5251 14.3872 58.9959 13.8587 58.3441 13.8587H49.157C49.0997 13.8587 49.0435 13.8641 48.988 13.8721L44.5055 11.1817H58.3434C58.9959 11.1817 59.5245 10.6525 59.5245 10C59.5245 9.34815 58.9959 8.81898 58.3434 8.81898H40.7055C40.6634 8.81898 40.6225 8.82142 40.5816 8.82569L34.5556 5.20813C34.0038 4.87671 33.2653 5.06165 32.9345 5.6128L32.5225 6.29944H20.5474C19.8955 6.29944 19.3664 6.82801 19.3664 7.48047V20.0794C19.3664 20.7312 19.8955 21.2604 20.5474 21.2604H23.5412L15.4296 34.773V2.36206H53.9868C54.6392 2.36206 55.1678 1.8335 55.1678 1.18103C55.1678 0.528565 54.6392 0 53.9868 0H14.2486C13.5961 0 13.0669 0.528565 13.0669 1.18103V38.7079L1.80897 57.4616C1.47328 58.0207 1.65455 58.7464 2.21364 59.0821L36.7797 79.8322C37.0446 79.9915 37.3742 80.0404 37.6739 79.9653L51.5026 76.5119C51.8029 76.4368 52.0696 76.2391 52.2289 75.9736L60.1159 62.8364H64.6429C65.2954 62.8364 65.8245 62.3072 65.8245 61.6547V53.3271L78.1671 32.7668C78.5028 32.2071 78.3215 31.482 77.7624 31.1463ZM24.9572 18.8983H21.729V8.66151H31.1047L24.959 18.8983C24.9584 18.8983 24.9578 18.8983 24.9572 18.8983ZM39.8675 76.9825L42.9797 71.7988L48.164 74.9109L47.3089 75.124L39.8675 76.9825ZM63.4619 60.4737H61.5344L63.4619 57.2626V60.4737ZM50.8117 73.7452L43.1829 69.1657C42.6238 68.83 41.8981 69.0113 41.5624 69.5704L36.983 77.1992L4.44264 57.6642L34.3523 7.84119L75.534 32.5635L50.8117 73.7452Z" fill="#222426"/>
        <path d="M42.4109 21.4961L51.0523 26.6835C51.2427 26.7976 51.452 26.8519 51.659 26.8519C52.06 26.8519 52.4512 26.6475 52.6728 26.2788C53.0091 25.7191 52.8278 24.994 52.2681 24.6577L43.6267 19.4704C43.0676 19.1347 42.3419 19.3159 42.0062 19.875C41.6705 20.4347 41.8518 21.1604 42.4109 21.4961Z" fill="#222426"/>
        <path d="M55.3731 29.2774L67.2554 36.4099C67.8517 36.7676 68.6476 36.5198 68.9375 35.8887C69.1847 35.3491 68.9796 34.69 68.4712 34.3848L56.5889 27.2516C56.0298 26.9159 55.3041 27.0972 54.9684 27.6563C54.6327 28.216 54.814 28.9417 55.3731 29.2774Z" fill="#222426"/>
        <path d="M30.959 23.4374L40.6807 29.2736C40.8711 29.3877 41.0805 29.442 41.2874 29.442C41.6884 29.442 42.0796 29.2376 42.3012 28.8689C42.6375 28.3098 42.4562 27.5841 41.8965 27.2484L32.1748 21.4122C31.6157 21.0766 30.89 21.2578 30.5543 21.8169C30.2186 22.376 30.3999 23.1017 30.959 23.4374Z" fill="#222426"/>
        <path d="M64.5801 40.8661L46.2171 29.8419C45.658 29.5062 44.9323 29.6875 44.5966 30.2472C44.2609 30.8063 44.4422 31.532 45.0012 31.8677L63.3643 42.8913C63.9606 43.2489 64.7571 43.0011 65.0464 42.37C65.2942 41.8305 65.0891 41.1713 64.5801 40.8661Z" fill="#222426"/>
        <path d="M61.3378 46.2675L28.9324 26.8138C28.3733 26.4781 27.6476 26.6587 27.3119 27.2184C26.9762 27.7775 27.1575 28.5032 27.7166 28.8389L60.122 48.2926C60.7183 48.6503 61.5148 48.4025 61.8041 47.7714C62.0519 47.2312 61.8462 46.5727 61.3378 46.2675Z" fill="#222426"/>
        <path d="M58.0959 51.6675L33.2521 36.7536C32.6924 36.4179 31.9673 36.5991 31.631 37.1582C31.2953 37.7173 31.4766 38.443 32.0362 38.7787L56.88 53.6933C57.4763 54.0509 58.2729 53.8031 58.5622 53.172C58.81 52.6318 58.6043 51.9727 58.0959 51.6675Z" fill="#222426"/>
        <path d="M21.2322 39.6401L40.6756 51.3119C40.866 51.426 41.0753 51.4804 41.2823 51.4804C41.6833 51.4804 42.0745 51.2759 42.2961 50.9072C42.6317 50.3482 42.4505 49.6224 41.8914 49.2867L22.448 37.6144C21.8883 37.2787 21.1632 37.46 20.8275 38.0196C20.4918 38.5787 20.6731 39.3044 21.2322 39.6401Z" fill="#222426"/>
        <path d="M54.8537 57.0685L46.2123 51.8811C45.6533 51.5454 44.9275 51.7261 44.5919 52.2858C44.2556 52.8449 44.4368 53.5706 44.9965 53.9063L53.6379 59.0937C54.2342 59.4519 55.0307 59.2035 55.32 58.5724C55.5672 58.0329 55.3621 57.3737 54.8537 57.0685Z" fill="#222426"/>
        <path d="M17.99 45.0409L25.551 49.5801C25.7415 49.6949 25.9508 49.7492 26.1577 49.7492C26.5593 49.7492 26.9506 49.5447 27.1721 49.1754C27.5078 48.6164 27.3266 47.8907 26.7669 47.555L19.2058 43.0158C18.6467 42.6801 17.921 42.8613 17.5853 43.4204C17.2496 43.9801 17.4309 44.7058 17.99 45.0409Z" fill="#222426"/>
        <path d="M51.6114 62.4696L31.0883 50.1491C30.5286 49.8134 29.8035 49.9946 29.4672 50.5537C29.1315 51.1128 29.3128 51.8385 29.8718 52.1742L50.3956 64.4948C50.9919 64.8524 51.7878 64.6046 52.0777 63.9735C52.3249 63.434 52.1198 62.7748 51.6114 62.4696Z" fill="#222426"/>
        <path d="M48.3691 67.8709L15.9636 48.4171C15.4039 48.0814 14.6788 48.2627 14.3432 48.8218C14.0075 49.3809 14.1887 50.1066 14.7478 50.4423L47.1532 69.896C47.7489 70.2537 48.5455 70.0059 48.8348 69.3748C49.0826 68.8352 48.8775 68.176 48.3691 67.8709Z" fill="#222426"/>
        <path d="M25.6836 61.5994L12.7215 53.818C12.1619 53.4823 11.4368 53.6636 11.1005 54.2227C10.7648 54.7818 10.946 55.5075 11.5057 55.8432L24.4678 63.6245C24.6582 63.7393 24.8676 63.7936 25.0745 63.7936C25.4755 63.7936 25.8667 63.5891 26.0883 63.2199C26.424 62.6608 26.2427 61.9351 25.6836 61.5994Z" fill="#222426"/>
        <path d="M37.5654 68.7327L30.0043 64.1935C29.4446 63.8578 28.7195 64.0391 28.3838 64.5982C28.0475 65.1572 28.2288 65.8829 28.7885 66.2186L36.3496 70.7578C36.9459 71.1155 37.7424 70.8677 38.0317 70.2366C38.2795 69.697 38.0744 69.0378 37.5654 68.7327Z" fill="#222426"/>
    </g>
    <defs>
        <clipPath id="clip0">
            <rect width="79.8438" height="80" fill="white"/>
        </clipPath>
    </defs>
</svg>
