<svg width="600" height="531" viewBox="0 0 600 531" fill="none" xmlns="http://www.w3.org/2000/svg">
<g clip-path="url(#clip0)">
        <path d="M469.187 467.3C469.187 479.788 465.484 491.996 458.546 502.379C451.608 512.763 441.746 520.856 430.209 525.635C418.671 530.414 405.975 531.664 393.727 529.228C381.479 526.792 370.228 520.778 361.397 511.947C352.567 503.117 346.553 491.866 344.117 479.618C341.681 467.37 342.931 454.674 347.71 443.136C352.489 431.599 360.582 421.737 370.966 414.799C381.349 407.861 393.557 404.158 406.045 404.158C422.792 404.158 438.852 410.81 450.693 422.652C462.535 434.493 469.187 450.553 469.187 467.3Z" fill="url(#paint0_linear)"/>
        <path d="M382.882 332.866L374.046 310.955C363.111 310.133 352.339 307.824 342.029 304.092L325.042 320.53L282.027 290.863L291.344 269.141C284.209 260.836 278.235 251.601 273.585 241.688L249.924 241.277L240.504 189.802L262.467 181.035C263.287 170.105 265.596 159.339 269.33 149.035L252.944 132.117L282.61 89.1018L304.332 98.4358C312.633 91.2903 321.869 85.3099 331.785 80.66L332.197 57.0162L383.671 47.5793L392.439 69.5416C403.368 70.362 414.134 72.671 424.439 76.4048L441.442 59.9846L484.458 89.6337L475.124 111.373C482.27 119.673 488.251 128.909 492.899 138.826L516.543 139.238L525.98 190.712L504.018 199.48C503.197 210.414 500.888 221.186 497.155 231.496L513.575 248.483L483.857 291.395L462.118 282.078C453.813 289.214 444.578 295.188 434.665 299.837L434.253 323.498L382.882 332.866ZM341.703 302.462L342.097 302.617C352.551 306.408 363.484 308.719 374.577 309.48H375.006L383.688 331.202L432.829 322.177L433.241 298.79L433.635 298.602C443.726 293.975 453.122 287.963 461.552 280.74L461.878 280.448L483.359 289.662L511.722 248.483L495.49 231.668L495.627 231.273C499.459 220.827 501.798 209.893 502.577 198.793V198.364L524.299 189.682L515.273 140.542L491.887 140.13L491.698 139.735C487.021 129.647 480.957 120.263 473.682 111.853L473.391 111.527L482.605 90.0455L441.545 61.769L424.73 78.0005L424.319 77.8633C413.873 74.063 402.945 71.7525 391.856 71H391.427L382.745 49.2779L333.587 58.3031L333.192 81.6895L332.798 81.8782C322.708 86.5513 313.322 92.6156 304.916 99.8942L304.59 100.186L283.108 90.8176L254.746 131.997L270.977 148.812L270.823 149.224C267.029 159.671 264.719 170.598 263.959 181.687V182.116L242.237 190.798L251.263 239.955L274.649 240.35L274.838 240.745C279.515 250.832 285.579 260.217 292.854 268.627L293.145 268.953L283.931 290.434L325.111 318.797L341.703 302.462ZM383.088 253.527C368.929 253.503 355.187 248.736 344.055 239.988C332.922 231.239 325.042 219.014 321.671 205.262C318.3 191.511 319.633 177.027 325.457 164.122C331.281 151.216 341.261 140.634 353.803 134.065C366.345 127.495 380.726 125.316 394.652 127.877C408.577 130.437 421.243 137.588 430.628 148.19C440.013 158.791 445.576 172.23 446.429 186.363C447.282 200.496 443.376 214.507 435.334 226.16C429.528 234.635 421.74 241.563 412.646 246.342C403.553 251.12 393.429 253.605 383.156 253.579L383.088 253.527ZM348 241.191C358.087 248.148 370.01 251.959 382.263 252.14C394.515 252.321 406.547 248.865 416.835 242.209C427.123 235.552 435.207 225.995 440.063 214.744C444.92 203.494 446.331 191.056 444.119 179.003C441.906 166.951 436.17 155.825 427.634 147.033C419.099 138.24 408.148 132.176 396.166 129.608C384.185 127.039 371.71 128.081 360.321 132.602C348.932 137.123 339.138 144.919 332.18 155.006C322.857 168.55 319.293 185.242 322.273 201.413C325.252 217.584 334.53 231.91 348.068 241.242L348 241.191Z" fill="url(#paint1_linear)"/>
        <path d="M583.219 351.74C585.505 345.783 586.937 339.533 587.475 333.175L600 328.388L597.581 313.992L595.161 299.631L581.761 299.202C579.161 293.376 575.76 287.941 571.655 283.056L577.128 270.823L565.255 262.364L553.382 253.939L543.601 263.102C537.641 260.83 531.392 259.403 525.036 258.864L520.249 246.321L505.871 248.792L491.51 251.228L491.081 264.629C485.253 267.226 479.818 270.628 474.935 274.735L462.701 269.261L454.259 281.135L445.801 293.008L454.98 302.788C452.693 308.739 451.261 314.984 450.725 321.336L438.2 326.14L440.619 340.502L443.038 354.88L456.439 355.309C459.042 361.128 462.443 366.557 466.545 371.438L461.071 383.688L472.945 392.13L484.818 400.589L494.598 391.41C500.558 393.687 506.807 395.119 513.163 395.665L517.95 408.19L532.329 405.771L546.69 403.352L547.119 389.951C552.943 387.347 558.377 383.946 563.265 379.845L575.498 385.301L583.94 373.428L592.399 361.555L583.219 351.74ZM498.39 356.338C492.625 352.247 488.204 346.538 485.685 339.933C483.167 333.328 482.664 326.124 484.242 319.234C485.82 312.343 489.406 306.075 494.547 301.224C499.689 296.372 506.154 293.155 513.124 291.98C520.095 290.805 527.257 291.724 533.705 294.621C540.153 297.518 545.597 302.263 549.347 308.256C553.097 314.248 554.984 321.218 554.771 328.284C554.558 335.349 552.253 342.193 548.148 347.948C542.653 355.646 534.33 360.852 525.003 362.425C515.676 363.997 506.106 361.809 498.39 356.338Z" fill="url(#paint2_linear)"/>
        <path d="M451.737 239.046C454.952 230.672 456.968 221.886 457.725 212.949L475.278 206.206L471.846 185.993L468.415 165.798L449.541 165.198C445.895 157.001 441.112 149.36 435.334 142.498L443.021 125.34L426.326 113.449L409.631 101.576L395.905 114.479C387.572 111.258 378.827 109.225 369.928 108.439L363.185 90.8176L342.972 94.2492L322.777 97.6808L322.177 116.555C313.98 120.201 306.339 124.983 299.477 130.762L282.319 123.075L270.428 139.77L258.555 156.464L271.44 170.191C268.24 178.568 266.231 187.353 265.469 196.288L247.848 203.031L251.28 223.243L254.711 243.456L273.585 244.039C277.231 252.235 282.014 259.877 287.792 266.739L280.105 283.897L296.8 295.788L313.495 307.661L327.221 294.775C335.598 297.977 344.383 299.987 353.319 300.746L360.062 318.368L380.274 314.936L400.469 311.504L401.07 292.631C409.262 288.984 416.903 284.208 423.77 278.441L440.928 286.111L452.818 269.416L464.692 252.721L451.737 239.046ZM332.437 245.532C324.337 239.77 318.128 231.735 314.595 222.443C311.062 213.152 310.364 203.022 312.589 193.333C314.813 183.645 319.861 174.834 327.094 168.015C334.326 161.196 343.419 156.675 353.221 155.023C363.023 153.372 373.095 154.665 382.163 158.738C391.23 162.811 398.886 169.482 404.162 177.907C409.438 186.331 412.098 196.131 411.804 206.067C411.51 216.003 408.276 225.629 402.511 233.727C398.686 239.104 393.838 243.675 388.246 247.179C382.654 250.682 376.427 253.049 369.92 254.146C363.412 255.242 356.753 255.045 350.321 253.567C343.89 252.089 337.813 249.359 332.437 245.532Z" fill="url(#paint3_linear)"/>
        <path d="M169.951 476.994V475.604C172.713 475.604 175.51 475.467 178.238 475.312V476.702C175.544 476.771 172.747 476.874 169.951 476.994ZM161.595 476.994C158.815 476.994 156.001 476.805 153.239 476.634V475.261C156.001 475.415 158.781 475.535 161.543 475.604L161.595 476.994ZM186.645 476.102L186.508 474.729C191.655 474.214 194.675 473.682 194.71 473.682L194.95 475.038C194.95 475.038 191.861 475.484 186.645 475.999V476.102ZM144.9 475.964C142.12 475.69 139.323 475.347 136.595 474.952L136.784 473.579C139.495 473.974 142.275 474.3 145.037 474.592L144.9 475.964ZM128.342 473.562C125.58 473.048 122.834 472.481 120.141 471.847L120.467 470.491C123.126 471.109 125.854 471.675 128.582 472.207L128.342 473.562ZM112.042 469.788C109.348 469.033 106.672 468.209 104.046 467.334L104.493 466.013C107.083 466.871 109.743 467.729 112.42 468.449L112.042 469.788ZM96.188 464.486C93.58 463.456 91.0406 462.358 88.4841 461.226L89.0675 459.956C91.5382 461.088 94.1119 462.169 96.7028 463.182L96.188 464.486ZM80.9688 457.622C78.4981 456.318 76.0445 454.946 73.6767 453.522L74.3802 452.338C76.7308 453.745 79.1673 455.1 81.6209 456.387L80.9688 457.622ZM66.6247 449.043C64.3255 447.482 62.0607 445.818 59.8644 444.119L60.7223 443.021C62.8843 444.737 65.132 446.35 67.414 447.894L66.6247 449.043ZM53.4302 438.749C51.3369 436.913 49.2951 434.991 47.3219 433.035L48.2999 432.04C50.2388 433.979 52.2806 435.883 54.3396 437.702L53.4302 438.749ZM41.574 426.961C39.738 424.885 37.9365 422.723 36.2206 420.544L37.3016 419.686C39.0174 421.848 40.7332 423.993 42.6206 426.035L41.574 426.961ZM31.2791 413.818C29.7006 411.553 28.1735 409.202 26.7151 406.818L27.899 406.097C29.3403 408.447 30.8673 410.781 32.4116 412.96L31.2791 413.818ZM22.5285 399.594C21.2245 397.175 19.9548 394.67 18.7538 392.147L20.0063 391.547C21.1902 394.052 22.4599 396.54 23.7467 398.925L22.5285 399.594ZM15.305 384.34C14.2583 381.818 13.2289 379.193 12.2852 376.568L13.5892 376.087C14.5329 378.695 15.5452 381.235 16.5918 383.809L15.305 384.34ZM9.59135 368.727C8.78492 366.119 7.99565 363.408 7.25786 360.714L8.57903 360.319C9.29966 362.996 10.0889 365.672 10.9125 368.28L9.59135 368.727ZM5.23321 352.615C4.85573 350.899 4.47825 349.184 4.13509 347.468C3.91204 346.438 3.70614 345.392 3.5174 344.362L4.87289 344.105L5.49058 347.193C5.83374 348.909 6.21122 350.625 6.58869 352.238L5.23321 352.615ZM2.11044 336.195C1.69865 333.432 1.33833 330.653 1.04664 327.908L2.43644 327.753C2.72813 330.481 3.07129 333.244 3.48308 335.989L2.11044 336.195ZM0.394635 319.569C0.171581 316.789 0 313.992 0 311.23H1.3898C1.3898 313.975 1.54422 316.755 1.73296 319.517L0.394635 319.569ZM1.47559 302.908H0.0857903C0.171581 300.129 0.308845 297.315 0.514742 294.569L1.90454 294.672C1.71581 297.366 1.49275 300.146 1.42412 302.908H1.47559ZM2.71097 286.385L1.33833 286.231C1.68149 283.468 2.07612 280.689 2.55655 277.961L3.91204 278.201C3.43161 280.912 3.00266 283.657 2.6595 286.385H2.71097ZM5.50774 270.068L4.15225 269.759C4.75278 267.065 5.42194 264.337 6.14258 261.66L7.48091 262.021C6.7088 264.68 6.05679 267.391 5.45626 270.068H5.50774ZM9.83156 254.076L8.52755 253.648C9.3683 251.022 10.2434 248.363 11.2557 245.755L12.5597 246.235C11.5474 248.792 10.6208 251.468 9.78009 254.076H9.83156ZM15.5624 238.497L14.2755 237.948C15.3565 235.426 16.506 232.801 17.7071 230.33L18.9596 230.913C17.7586 233.47 16.6262 236.009 15.5624 238.497ZM22.6486 223.484L21.4132 222.849C22.6829 220.412 24.0213 217.942 25.4111 215.522L26.6293 216.209C25.2395 218.662 23.9012 221.116 22.6486 223.518V223.484ZM30.8673 209.071L29.6834 208.35C31.1419 206.017 32.6518 203.649 34.2132 201.333L35.3627 202.088C33.8185 204.438 32.3086 206.789 30.8845 209.105L30.8673 209.071ZM40.0812 195.259L38.9659 194.452C40.5445 192.222 42.2088 189.974 43.9075 187.726L45.0227 188.567C43.3241 190.832 41.6769 193.08 40.0812 195.293V195.259ZM50.1358 182.013L49.0377 181.155C50.7535 179.01 52.4693 176.848 54.3567 174.703L55.4034 175.596C53.6189 177.757 51.8345 179.919 50.1358 182.047V182.013ZM60.8425 169.299L59.813 168.372C61.5288 166.347 63.4848 164.254 65.3893 162.178L66.4188 163.122C64.5143 165.215 62.6441 167.308 60.8425 169.333V169.299ZM72.0638 157.065L71.0858 156.138C72.956 154.182 74.8949 152.158 76.8852 150.133L77.8804 151.111C75.8901 153.118 73.9512 155.126 72.0638 157.065ZM83.7141 145.191L82.7704 144.128C84.675 142.24 86.631 140.336 88.7243 138.294L89.7023 139.289C87.5919 141.4 85.653 143.304 83.7485 145.191H83.7141ZM95.7248 133.558L94.7639 132.563L100.804 126.815L101.764 127.81L95.7248 133.558ZM107.735 122.08L106.775 121.067C108.834 119.134 110.847 117.218 112.814 115.319L113.775 116.314L107.735 122.08ZM119.746 110.515L118.768 109.537C120.947 107.409 122.869 105.488 124.67 103.652L125.666 104.63C123.915 106.466 121.977 108.387 119.815 110.515H119.746ZM131.448 98.6073L130.436 97.6637C132.477 95.4674 134.279 93.4428 135.96 91.4696L137.024 92.3618C135.394 94.3693 133.575 96.394 131.516 98.6073H131.448ZM142.292 85.7903L141.176 84.9667C142.803 82.7692 144.299 80.4775 145.655 78.1035L146.873 78.7898C145.478 81.2072 143.949 83.5443 142.292 85.7903ZM150.305 71.0515L148.983 70.6397L149.189 69.9362C149.91 67.5169 150.733 65.0805 151.66 62.7127L152.947 63.2103C152.038 65.5438 151.231 67.9459 150.528 70.3309C150.459 70.5882 150.39 70.8284 150.305 71.0687V71.0515ZM156.293 55.6093L155.057 54.9916C156.293 52.5036 157.665 50.0329 159.141 47.6651L160.308 48.3857C158.866 50.805 157.511 53.19 156.293 55.6779V55.6093ZM164.872 41.5568L163.756 40.7332C165.472 38.5027 167.188 36.3236 169.058 34.2303L170.105 35.1569C168.355 37.2845 166.588 39.4635 164.958 41.6254L164.872 41.5568ZM175.853 29.2202L174.892 28.2078C176.9 26.3033 179.027 24.4502 181.206 22.7001L182.064 23.7811C180.005 25.5655 177.912 27.4529 175.939 29.2888L175.853 29.2202ZM188.721 18.9253L187.949 17.7757C190.248 16.2144 192.633 14.7388 195.07 13.3661L195.739 14.5843C193.44 15.9227 191.072 17.3983 188.739 18.8739L188.721 18.9253ZM203.1 10.7924L202.516 9.53988C205.039 8.37313 207.664 7.29217 210.255 6.33132L210.735 7.63533C208.247 8.57903 205.674 9.64283 203.186 10.7924H203.1ZM275.73 5.79942C273.088 4.99299 270.394 4.30667 267.717 3.7233L268.009 2.36781C270.72 2.95119 273.448 3.65467 276.125 4.46109L275.73 5.79942ZM218.697 5.14742L218.319 3.82625C220.996 3.07129 223.741 2.41929 226.469 1.90454L226.744 3.26003C224.05 3.70614 221.339 4.34099 218.697 5.14742ZM259.653 2.35065C256.942 1.97318 254.162 1.71581 251.434 1.56138V0.171581C254.214 0.326003 257.01 0.600532 259.773 0.978009L259.653 2.35065ZM234.911 2.02465L234.757 0.634848C237.536 0.274529 240.35 0 243.13 0V1.3898C240.419 1.45843 237.639 1.71581 234.911 1.95602V2.02465Z" fill="white"/>
        <path d="M162.109 299.202H94.9527C93.2719 299.202 91.6598 298.536 90.4697 297.349C89.2796 296.162 88.6087 294.552 88.6042 292.871V246.699C88.6042 245.015 89.2731 243.4 90.4636 242.209C91.6542 241.019 93.269 240.35 94.9527 240.35H162.109C163.79 240.355 165.4 241.025 166.587 242.216C167.774 243.406 168.441 245.018 168.441 246.699V292.871C168.441 294.55 167.774 296.16 166.586 297.348C165.399 298.535 163.788 299.202 162.109 299.202ZM94.9527 241.277C93.5161 241.281 92.1396 241.854 91.1238 242.87C90.1079 243.885 89.5353 245.262 89.5307 246.699V292.871C89.5353 294.306 90.1085 295.681 91.1248 296.694C92.1412 297.707 93.5177 298.276 94.9527 298.276H162.109C163.543 298.276 164.917 297.706 165.931 296.693C166.945 295.679 167.514 294.304 167.514 292.871V246.699C167.514 245.263 166.945 243.887 165.932 242.871C164.919 241.854 163.544 241.281 162.109 241.277H94.9527Z" fill="url(#paint4_linear)"/>
        <path d="M118.391 181.875C118.391 181.875 197.318 152.501 224.771 198.93C252.223 245.36 210.735 240.522 210.735 240.522C210.735 240.522 207.304 261.111 170.379 210.049C152.998 185.942 118.391 181.875 118.391 181.875Z" fill="#BBD070"/>
        <path d="M111.253 53.0184C111.253 53.0184 180.829 35.1397 221.665 124.293C262.501 213.446 302.737 222.334 302.737 222.334C302.737 222.334 146.358 242.495 111.253 53.0184Z" fill="#97A43C"/>
        <path d="M273.98 225.937C266.55 254.54 203.151 195.55 199.102 145.294C195.053 95.0385 209.826 58.9551 198.261 26.2518C198.261 26.2175 310.561 85.0696 273.98 225.937Z" fill="#48753A"/>
        <path d="M258.606 467.3L208.47 472.962L220.189 463.319L258.606 467.3Z" fill="#D6D6D6"/>
        <path d="M258.606 467.3L234.894 457.485L225.474 463.868L258.606 467.3Z" fill="#E8E8E8"/>
        <path d="M220.001 471.658L222.523 476.685L258.606 467.3L220.001 471.658Z" fill="#C2C2C2"/>
        <path d="M173.434 384.049H277.549C277.36 382.831 277.188 380.926 277.034 379.107C276.022 368.263 275.318 361.057 275.318 361.057C275.318 361.057 189.94 318.728 180.589 346.558C177.301 357.177 175.088 368.098 173.983 379.159C173.828 380.909 173.622 382.882 173.434 384.049Z" fill="#6770B5"/>
        <path d="M261.54 240.213C261.54 240.213 266.31 268.541 270.119 287.243C271.03 292.476 272.315 297.636 273.963 302.685C275.061 305.053 284 314.696 294.947 325.917C314.13 345.683 339.558 370.528 339.558 370.528L349.475 351.654C349.475 351.654 326.947 325.248 311.728 307.61C304.658 299.46 299.151 293.18 298.138 292.287C294.947 289.422 291.275 261.283 286.128 238.085C280.98 214.887 270.462 202.053 270.462 202.053L261.54 240.213Z" fill="#E8E8E8"/>
        <path d="M294.964 326.003C314.147 345.769 339.575 370.614 339.575 370.614L349.492 351.74C349.492 351.74 326.964 325.334 311.745 307.695C306.958 310.012 298.361 315.485 294.964 326.003Z" fill="#EEA886"/>
        <path d="M175.167 366.908C174.463 369.43 271.578 370.46 271.578 370.46C271.578 370.46 267.46 340.158 265.109 333.106C262.758 326.055 271.801 283.863 273.311 270.085C274.512 259.052 277.549 209.723 270.274 202.191C262.69 194.315 235.323 186.045 235.323 186.045L195.447 187.538C191.58 188.363 187.8 189.552 184.157 191.089C179.439 193.286 152.535 202.86 148.125 216.312C143.716 229.764 174.961 272.933 174.961 272.933C174.961 272.933 174.961 274.872 175.115 278.081C175.235 282.336 175.424 288.787 175.578 295.788C175.801 304.847 175.973 314.833 175.973 322.108C176.024 339.266 175.887 364.386 175.167 366.908Z" fill="#E8E8E8"/>
        <path d="M224.376 99.3966C224.376 99.3966 259.087 91.5897 251.091 135.154C243.095 178.718 234.859 182.15 213.978 173.142C193.097 164.134 194.95 136.201 193.886 122.509C192.822 108.816 213.343 99.877 224.376 99.3966Z" fill="#EEA886"/>
        <path d="M233.538 197.318C233.538 197.318 218.216 213.583 193.972 198.81C193.972 198.81 199.394 163.568 196.546 146.41C193.697 129.252 228.202 172.919 228.202 172.919C227.739 173.159 227.447 174.789 227.379 177.123C227.316 179.456 227.436 181.791 227.739 184.106C228.408 189.802 230.192 195.842 233.538 197.318Z" fill="#EEA886"/>
        <path d="M205.897 129.372C205.451 125.528 197.85 124.121 197.318 129.886C196.786 135.652 200.749 145.775 203.649 144.78C206.549 143.784 206.446 134.674 205.897 129.372Z" fill="#EEA886"/>
        <path d="M195.602 144.865C195.602 144.865 196.494 131.139 201.521 130.71C206.549 130.281 207.304 135.857 207.304 135.857L212.451 136.801C212.451 136.801 210.855 124.791 215.883 122.663C220.91 120.535 248.311 129.286 252.326 125.769C256.341 122.251 254.454 97.8181 247.179 94.4894C239.904 91.1607 219.829 83.6627 205.125 93.6143C205.125 93.6143 193.663 92.3103 191.964 101.559C190.266 110.807 192.479 137.985 195.602 144.865Z" fill="#292C47"/>
        <path d="M227.705 184.106C202.705 176.402 200.749 161.286 200.749 161.114C208.985 175.252 227.31 177.123 227.31 177.123C227.258 179.457 227.39 181.792 227.705 184.106Z" fill="#A77860"/>
        <path d="M183.746 191.278C183.746 191.278 202.053 227.722 231.634 225.371C261.214 223.02 236.661 186.388 235.323 186.045C233.984 185.702 204.987 178.444 183.746 191.278Z" fill="#EEA886"/>
        <path d="M143.561 327.547C144.917 329.126 162.727 336.281 182.853 344.036C210.306 354.623 241.362 364.626 241.362 364.626L248.414 349.492C248.414 349.492 215.934 331.854 193.989 319.466C183.694 313.615 175.613 308.948 174.48 307.867C170.946 304.521 170.036 299.116 172.627 289.731C175.218 280.345 181.206 237.124 181.875 232.08C182.545 227.035 180.16 213.601 167.583 212.931C155.006 212.262 148.572 215.814 148.572 215.814C148.572 215.814 145.397 217.118 143.047 247.711C140.696 278.304 140.37 323.858 143.561 327.547Z" fill="#E8E8E8"/>
        <path d="M175.167 278.098C175.287 282.353 175.475 288.804 175.63 295.805C187.932 265.641 180.777 241.585 180.777 241.174C182.047 249.358 175.27 277.703 175.167 278.098Z" fill="#C4C4C4"/>
        <path d="M270.136 287.192C271.047 292.424 272.332 297.585 273.98 302.634C278.184 282.301 274.392 256.307 274.392 256.307C273.593 266.678 272.172 276.991 270.136 287.192Z" fill="#C4C4C4"/>
        <path d="M182.853 344.036C210.306 354.623 249.118 363.476 249.118 363.476L254.608 350.265C254.608 350.265 215.934 331.871 193.989 319.483C194.006 319.483 186.028 323.378 182.853 344.036Z" fill="#EEA886"/>
        <path d="M254.626 350.265C254.626 350.265 262.673 349.012 268.232 347.725C272.539 346.73 283.245 348.103 285.973 350.865C288.701 353.628 297.366 372.879 298.996 374.046C300.626 375.212 298.155 377.94 295.273 376.568C295.273 376.568 293.094 380.377 286.574 377.22C280.054 374.063 275.164 371.815 271.749 370.597C268.335 369.379 248.431 363.27 248.431 363.27C248.431 363.27 249.495 348.309 254.626 350.265Z" fill="#EEA886"/>
        <path d="M283.108 352.495C285.354 353.555 287.527 354.764 289.611 356.115C290.966 357.214 296.474 361.263 297.761 362.275C299.048 363.288 295.753 365.981 285.99 361.743C276.227 357.505 283.108 352.495 283.108 352.495Z" fill="#EEA886"/>
        <path d="M283.554 295.925L274.546 379.691H393.108L402.116 295.925H283.554Z" fill="#254380"/>
        <path d="M265.109 379.691H284.909V372.158H265.109V379.691Z" fill="#254380"/>
        <path d="M403.026 379.519H58.6977V384.615H403.026V379.519Z" fill="url(#paint5_linear)"/>
        <path d="M417.919 361.057C417.919 361.057 390.329 383.637 401.43 403.678C412.531 423.718 419.652 407.418 419.652 407.418C419.652 407.418 427.939 410.609 417.112 386.125C412.016 374.595 417.919 361.057 417.919 361.057Z" fill="#BBD070"/>
        <path d="M331.751 336.469C330.79 341.136 332.969 345.512 336.607 346.25C340.244 346.987 343.968 343.813 344.911 339.163C345.855 334.513 343.693 330.104 340.055 329.366C336.418 328.628 332.695 331.802 331.751 336.469Z" fill="#3F71D9"/>
        <path d="M460.042 321.902C460.042 321.902 421.076 339.953 428.025 366.65C434.974 393.348 448.134 376.482 448.134 376.482C448.134 376.482 456.85 382.693 451.566 350.899C449.095 335.92 460.042 321.902 460.042 321.902Z" fill="#BBD070"/>
        <path d="M415.86 273.053C415.86 273.053 384.409 291.927 402.133 338.7C419.858 385.473 408.585 403.3 408.585 403.3C408.585 403.3 472.001 353.816 415.86 273.053Z" fill="#48753A"/>
        <path d="M417.73 400.967C430.77 408.55 432.143 364.368 415.345 344.843C398.547 325.317 380.171 317.733 372.45 301.793C372.467 301.793 353.456 363.751 417.73 400.967Z" fill="#97A43C"/>
        <path d="M475.518 327.959C475.518 327.959 487.529 292.819 464.64 281.924C441.751 271.029 422.363 286.78 418.708 295.307C415.053 303.835 416.014 319.329 419.137 330.121C422.26 340.913 421.814 357.368 415.019 362.859C408.224 368.349 399.783 377.477 400.212 396.094C400.469 407.624 445.595 366.582 445.595 366.582L475.518 327.959Z" fill="#323657"/>
        <path d="M443.398 369.756C443.398 369.756 424.525 373.908 417.147 378.335C409.769 382.762 393.125 402.751 393.125 411.364C393.125 419.978 465.567 428.042 465.567 428.042L479.293 478.161C479.293 478.161 515.908 469.221 520.267 461.826C524.625 454.431 506.351 401.31 503.229 390.552C500.106 379.794 486.911 371.952 471.658 369.825C462.285 368.52 452.778 368.497 443.398 369.756Z" fill="#254380"/>
        <path d="M470.354 369.567C470.354 369.567 469.942 392.405 451.823 393.091C433.704 393.777 437.53 371.18 437.53 371.18C437.53 371.18 450.742 365.81 470.354 369.567Z" fill="#EEA886"/>
        <path d="M478.023 300.661C478.023 300.661 484.423 337.396 466.184 363.922C447.293 391.41 478.023 300.661 478.023 300.661Z" fill="#323657"/>
        <path d="M466.476 353.456C466.476 353.456 465.223 364.386 467.317 371.18C469.41 377.975 439.624 378.163 439.641 372.57C439.641 366.221 442.695 360.92 439.83 350.059C436.964 339.198 466.476 353.456 466.476 353.456Z" fill="#EEA886"/>
        <path d="M443.364 354.811C446.181 357.595 449.927 359.24 453.882 359.43C457.838 359.62 461.724 358.342 464.795 355.841C464.795 355.841 463.799 362.104 455.152 362.91C446.504 363.716 443.364 354.811 443.364 354.811Z" fill="#A77860"/>
        <path d="M455.135 287.929C455.135 287.929 478.916 294.964 475.518 327.959C472.121 360.954 456.644 359.255 455.135 359.496C453.625 359.736 435.248 360.954 429.397 320.924C423.547 280.894 455.135 287.929 455.135 287.929Z" fill="#EEA886"/>
        <path d="M449.009 302.634C449.009 302.634 461.929 323.223 475.518 327.959C475.518 327.959 482.948 293.471 452.286 286.248C421.625 279.024 426.412 321.079 428.711 332.283C433.442 321.15 440.342 311.071 449.009 302.634Z" fill="#323657"/>
        <path d="M431.679 299.545C431.679 299.545 438.543 286.368 449.97 285.819C461.397 285.27 468.278 295.119 468.278 295.119C466.655 291.665 464.056 288.762 460.803 286.768C457.55 284.774 453.784 283.776 449.97 283.897C436.158 283.931 431.679 299.545 431.679 299.545Z" fill="#88C0FF"/>
        <path d="M478.418 403.129L486.482 478.092H380.36L372.295 403.129H478.418Z" fill="#FFC655"/>
        <path d="M494.924 471.349H477.2V478.092H494.924V471.349Z" fill="#FFC655"/>
        <path d="M435.969 439.401C436.93 444.068 434.751 448.443 431.113 449.198C427.476 449.953 423.752 446.761 422.809 442.094C421.865 437.427 424.027 433.052 427.665 432.297C431.302 431.542 435.025 434.734 435.969 439.401Z" fill="#E0AE4B"/>
        <path d="M599.537 478.092H307.215V483.188H599.537V478.092Z" fill="url(#paint6_linear)"/>
        <path d="M333.209 515.84C333.263 516.633 333.437 517.414 333.724 518.156C334.119 518.808 335.44 522.651 335.92 523.629C336.401 524.608 338.631 525.345 338.528 527.061C338.425 528.777 334.428 529.051 333.381 528.228C331.461 526.143 329.738 523.886 328.234 521.485C327.968 520.843 327.846 520.152 327.876 519.458C327.906 518.765 328.086 518.086 328.405 517.47C329.123 516.751 329.653 515.868 329.949 514.896C329.915 514.519 332.866 515.136 333.209 515.84Z" fill="#FFC955"/>
        <path d="M328.577 464.606C328.577 464.606 335.766 474.06 337.001 476.857C338.237 479.653 340.433 483.72 340.433 484.955C340.156 487.547 339.58 490.097 338.717 492.556C338.168 493.551 334.393 510.607 334.187 511.705C333.982 512.803 333.209 515.84 333.209 515.84L329.932 514.862C329.932 514.862 329.589 499.763 330.172 496.76C330.756 493.757 332.54 489.416 332.266 488.044C331.991 486.671 327.582 482.896 324.562 480.855C321.542 478.813 317.956 475.621 317.699 472.275C317.7 469.861 318.197 467.473 319.157 465.258C319.157 465.258 322.571 462.873 328.577 464.606Z" fill="#254380"/>
        <path d="M336.641 463.748C337.537 465.12 338.572 466.397 339.729 467.557C343.536 470.828 346.986 474.492 350.024 478.487C352.1 481.832 352.804 482.347 352.375 483.789C351.946 485.23 351.328 489.142 350.848 490.137C350.367 491.132 344.396 514.982 344.396 514.982C344.396 514.982 341.926 515.617 341.205 514.519C341.884 509.853 342.233 505.146 342.252 500.432C341.852 496.328 342.52 492.191 344.191 488.421C344.528 487.965 344.764 487.441 344.881 486.885C344.998 486.33 344.993 485.755 344.868 485.201C344.742 484.648 344.499 484.127 344.154 483.676C343.809 483.225 343.371 482.854 342.869 482.587C341.051 481.335 331.082 475.724 331.082 475.724C331.082 475.724 318.951 459.012 336.641 463.748Z" fill="#254380"/>
        <path d="M344.276 514.862C344.276 514.862 344.276 515.462 344.499 515.531C344.722 515.6 347.519 519.803 348.068 520.404C348.617 521.004 352.015 521.982 352.066 522.377C351.992 523.168 351.607 523.898 350.996 524.406C350.385 524.914 349.598 525.16 348.806 525.088C346.026 525.088 343.659 522.737 342.578 521.828C341.497 520.919 338.323 520.026 339.455 517.744C340.587 515.462 341.171 514.519 341.171 514.519L344.276 514.862Z" fill="#FFC955"/>
        <path d="M328.834 516.938C329.46 518.015 329.945 519.168 330.275 520.37C330.842 522.326 333.055 524.848 334.582 524.762C336.109 524.676 335.852 523.578 335.852 523.578C335.852 523.578 334.136 519.151 333.553 517.727C333.403 517.134 333.288 516.532 333.209 515.926C332.242 515.274 331.099 514.932 329.932 514.948C329.932 514.948 329.057 516.629 328.834 516.938Z" fill="#254380"/>
        <path d="M348.188 520.524C348.053 520.881 347.803 521.184 347.476 521.383C347.15 521.582 346.767 521.666 346.387 521.622C345.037 521.113 343.851 520.247 342.955 519.117C342.029 518.23 341.055 517.393 340.038 516.612L341.222 514.519L344.311 514.707L348.188 520.524Z" fill="#254380"/>
        <path d="M336.572 463.508C337.478 464.712 338.458 465.858 339.506 466.939C343.766 470.372 347.445 474.468 350.402 479.07C350.402 479.07 338.014 478.71 331.15 486.345C331.15 486.345 324.459 480.803 323.721 480.237C322.983 479.671 318.162 476.805 317.784 472.327C317.464 469.89 317.978 467.417 319.243 465.309C319.243 465.309 332.763 462.187 336.572 463.508Z" fill="#FFC955"/>
        <path d="M338.134 450.399C336.504 453.161 336.229 462.907 336.641 463.834C330.95 465.503 324.995 466.085 319.088 465.549C319.088 465.549 319.5 464.674 319.912 463.508C320.066 463.044 320.255 462.53 320.427 461.998C321.01 460.282 321.662 458.566 321.988 457.76C322.609 455.952 322.573 453.984 321.885 452.201C321.319 451.205 317.973 443.776 317.973 443.776C317.973 443.776 316.257 438.491 319.26 436.913C321.139 435.904 323.148 435.16 325.231 434.699L330.687 434.322C330.687 434.322 331.871 434.545 333.467 434.682C335.063 434.819 336.727 435.094 337.053 437.736C337.172 439.354 337.512 440.947 338.065 442.472C338.408 443.107 339.987 447.259 338.134 450.399Z" fill="#FFC955"/>
        <path d="M321.267 435.918C320.341 436.06 319.453 436.391 318.659 436.89C317.866 437.388 317.182 438.044 316.652 438.817C315.245 441.271 315.348 444.582 315.039 445.904C314.73 447.225 312.826 459.63 313.169 460.625C313.418 461.41 313.916 462.093 314.588 462.57C315.26 463.046 316.069 463.291 316.892 463.267C318.917 463.044 327.101 458.789 327.101 458.789C326.648 457.535 326.281 456.25 326.003 454.946L318.127 457.691C318.127 457.691 320.015 444.805 320.255 443.381C320.495 441.957 322.04 437.187 321.267 435.918Z" fill="#FFC955"/>
        <path d="M334.942 434.871C336.466 435.236 337.813 436.122 338.751 437.376C339.449 439.007 339.845 440.751 339.918 442.523C340.055 443.107 341.874 449.764 341.874 449.764L336.727 453.196L334.942 434.871Z" fill="#FFC955"/>
        <path d="M337.276 447.705L319.431 442.42L318.711 443.004L317.235 457.022L337.276 464.554V447.705Z" fill="#1D3B54"/>
        <path d="M335.32 425.125C335.32 425.125 333.604 433.292 334.822 435.54C334.822 435.54 331.133 434.185 330.413 432.692C329.692 431.199 335.32 425.125 335.32 425.125Z" fill="#1D3B54"/>
        <path d="M331.253 431.353C331.253 431.353 331.168 432.177 331.082 433.258C331.082 433.618 331.082 434.03 330.979 434.442C330.881 435.583 330.841 436.728 330.859 437.874C330.859 437.874 328.234 440.687 325.231 434.596C326.019 432.713 326.128 430.615 325.54 428.66C324.596 425.28 331.253 431.353 331.253 431.353Z" fill="#EEA886"/>
        <path d="M331.15 415.225C331.15 415.225 335.8 415.688 336.006 421.642C336.212 427.596 333.69 432.486 332.815 433.224C331.94 433.962 327.393 432.743 326.638 429.569C325.883 426.395 324.527 423.976 325.059 421.402C325.591 418.828 325.523 414.367 331.15 415.225Z" fill="#EEA886"/>
        <path d="M336.006 423.804C336.006 423.804 338.048 416.666 332.043 414.59C326.037 412.514 323.464 416.735 322.52 419.326C321.861 422.718 321.522 426.165 321.508 429.621C323.274 431.744 325.297 433.64 327.53 435.266C326.888 430.643 326.963 425.95 327.753 421.35C330.451 422.151 333.265 422.487 336.075 422.345C336.075 422.345 336.04 423.512 336.006 423.804Z" fill="#1D3B54"/>
        <path d="M331.15 433.258C331.15 433.618 331.15 434.03 331.048 434.442C329.624 433.817 328.461 432.72 327.753 431.336C328.65 432.325 329.841 432.999 331.15 433.258Z" fill="#A77860"/>
        <path d="M338.117 442.541C338.117 442.541 340.965 447.379 340.33 450.553C339.695 453.728 337.55 451.857 337.55 451.857C338.443 450.486 338.964 448.907 339.063 447.274C339.163 445.641 338.836 444.01 338.117 442.541Z" fill="#CFA345"/>
        <path d="M338.408 464.554L349.99 454.5L353.233 438.011L339.18 447.722L338.408 464.554Z" fill="#1D3B54"/>
        <path d="M337.276 464.554H338.408L339.18 447.722L337.276 447.705V464.554Z" fill="#1D3B54"/>
        <path d="M326.089 455.478C326.089 455.478 327.582 454.929 327.805 454.826C328.028 454.723 328.182 453.11 328.92 452.544C329.584 452.067 330.22 451.551 330.824 450.999C330.996 450.708 331.425 451.548 330.824 452.269C330.224 452.99 330.155 453.556 331.768 453.196C332.678 452.99 335.612 451.222 335.577 451.892C335.577 452.286 332.678 453.882 332.678 453.882C333.78 453.342 334.929 452.899 336.109 452.561C336.487 452.87 333.33 454.483 333.175 454.534C333.021 454.585 336.006 453.453 336.143 453.693C336.281 453.933 333.45 455.152 333.501 455.186C333.553 455.22 335.766 454.345 335.817 454.568C335.869 454.791 333.964 455.752 333.57 455.872C333.175 455.992 329.074 457.468 328.422 457.588C327.914 457.712 327.461 458.002 327.135 458.412L326.089 455.478Z" fill="#EEA886"/>
        <path d="M326.638 454.877C327.148 456.04 327.511 457.262 327.719 458.515C327.719 458.515 322.571 461.191 319.26 462.513L316.686 456.936L317.235 457.022L318.093 457.348L326.638 454.877Z" fill="#FFC955"/>
        <path d="M344.585 514.072C344.585 514.072 344.808 516.166 345.151 516.337C345.495 516.509 341.737 515.634 344.585 514.072Z" fill="#254380"/>
        <path d="M324.064 460.333C323.978 460.333 321.267 462.547 319.912 463.525C320.066 463.062 320.255 462.547 320.427 462.015L324.064 460.333Z" fill="#CFA345"/>
        <path d="M349.99 454.5L354.365 438.526L353.233 438.011L349.99 454.5Z" fill="#1D3B54"/>
        <path d="M350.144 453.985C350.422 453.462 350.669 452.924 350.882 452.372C351.429 450.939 351.809 449.448 352.015 447.928C350.892 447.955 349.799 448.294 348.858 448.906C348.497 449.438 349.458 449.369 349.458 449.369C349.458 449.369 348.085 449.867 348.291 450.245C348.497 450.622 349.304 450.245 349.304 450.245C349.304 450.245 348.24 450.742 348.497 451.051C348.755 451.36 349.287 451.205 349.287 451.205C349.287 451.205 348.326 451.583 348.532 451.943C348.737 452.303 350.436 452.252 350.247 452.629C350.161 453.076 350.126 453.531 350.144 453.985Z" fill="#EEA886"/>
        <path d="M331.511 31.7596L332.249 29.958C332.292 29.3318 332.192 28.704 331.957 28.1221C331.734 27.4094 331.36 26.7537 330.859 26.2004C330.756 26.1569 330.645 26.1346 330.533 26.1346C330.421 26.1346 330.31 26.1569 330.207 26.2004C329.969 26.2909 329.757 26.4381 329.589 26.6293C329.44 26.6082 329.289 26.6273 329.15 26.6846C329.011 26.742 328.89 26.8354 328.8 26.9553C328.646 26.9479 328.494 26.9863 328.363 27.0658C328.231 27.1453 328.127 27.2621 328.062 27.4014C328.062 27.4014 327.564 27.4014 327.427 27.7617C327.502 28.1057 327.542 28.4564 327.547 28.8084C327.743 29.9252 328.09 31.0102 328.577 32.0341C328.577 32.0341 329.297 33.5097 331.511 31.7596Z" fill="#EEA886"/>
        <path d="M347.656 25.4454C347.656 25.4454 346.49 27.6245 347.073 27.9505C347.656 28.2765 346.507 30.3698 346.37 30.7129C346.232 31.0561 347.245 31.3135 347.451 31.5365C347.656 31.7596 348.308 34.5049 349.166 34.5906C351.179 34.3098 353.09 33.5313 354.726 32.3258C356.008 29.9314 356.421 27.1662 355.892 24.5017C355.172 22.4942 349.733 21.6535 347.656 25.4454Z" fill="#EEA886"/>
        <path d="M347.433 25.9258C347.101 25.2382 347.015 24.4571 347.19 23.7136C347.365 22.97 347.79 22.3093 348.394 21.8422C350.573 20.1264 354.571 23.1462 355.017 23.2663C355.463 23.3864 357.986 23.5409 356.733 28.0534C355.635 32.0512 355.481 31.8282 355.481 31.8282C355.154 30.9949 354.715 30.2099 354.177 29.4947C353.45 29.1512 352.644 29.009 351.843 29.0829C351.843 29.0829 352.598 27.0583 351.414 26.7666C350.23 26.4749 348.635 25.4626 347.433 25.9258Z" fill="#FCCCA2"/>
        <path d="M353.113 27.9333C353.216 27.6416 353.559 26.4577 354.588 27.1612C355.618 27.8647 353.954 30.1124 353.765 30.1467C353.576 30.181 352.221 30.2668 353.113 27.9333Z" fill="#EEA886"/>
        <path d="M351.603 34.0073L351.86 34.5735C351.86 34.7107 351.997 34.8823 352.066 35.0539C353.084 34.4057 353.931 33.5232 354.537 32.4802C353.601 33.0671 352.62 33.5777 351.603 34.0073Z" fill="#A77860"/>
        <path d="M316.967 30.143L345.957 29.4953L345.903 27.0766L316.913 27.7243L316.967 30.143Z" fill="#2F4563"/>
        <path d="M343.803 30.0738L345.981 30.0251L345.905 26.5944L343.726 26.643L343.803 30.0738Z" fill="#2F4563"/>
        <path d="M312.84 30.4161L324.061 30.1917L323.975 25.8507L312.753 26.0751L312.84 30.4161Z" fill="#2F4563"/>
        <path d="M306.407 32.5676L313.852 32.4L313.699 25.6071L306.254 25.7747L306.407 32.5676Z" fill="#2F4563"/>
        <path d="M334.119 27.4529C334.077 27.674 334.077 27.9009 334.119 28.1221C334.119 28.1221 334.222 28.5167 334.29 28.8084C334.296 28.8826 334.296 28.9572 334.29 29.0314C334.281 29.4498 334.338 29.867 334.462 30.2668C334.651 30.7815 335.509 32.5488 335.509 32.5488L337.224 32.0856H338.683C338.968 30.838 339.158 29.5703 339.249 28.2936C339.249 28.2936 339.249 28.2078 339.249 28.1564C339.1 27.8486 338.922 27.5556 338.717 27.2813C338.717 27.2813 338.271 26.4577 338.014 26.4234C337.878 26.3877 337.736 26.3879 337.6 26.424C337.465 26.4601 337.341 26.5309 337.242 26.6293C336.874 26.5817 336.5 26.6351 336.161 26.7837C335.972 26.7574 335.779 26.7746 335.598 26.8341C335.416 26.8936 335.251 26.9937 335.114 27.1269C335.114 27.1269 334.29 27.1784 334.119 27.4529Z" fill="#EFAA88"/>
        <path d="M330.927 26.4234C330.927 26.4234 331.511 28.5682 331.168 28.7054C331.086 28.7505 330.995 28.7741 330.902 28.7741C330.809 28.7741 330.717 28.7505 330.636 28.7054L330.464 29.7006C330.464 29.7006 329.984 30.3011 329.469 29.5976C329.469 29.5976 329.091 30.1982 328.68 29.4604C328.68 29.4604 328.234 29.7521 327.993 29.4604C327.727 28.8394 327.537 28.1884 327.427 27.5215C327.499 27.4262 327.604 27.361 327.721 27.3388C327.839 27.3166 327.96 27.3389 328.062 27.4014C328.127 27.2621 328.231 27.1453 328.363 27.0658C328.494 26.9863 328.646 26.9479 328.8 26.9553C328.888 26.8325 329.008 26.7369 329.148 26.6793C329.287 26.6216 329.44 26.6043 329.589 26.6293C329.589 26.6293 330.155 25.84 330.859 26.2347C330.885 26.2963 330.908 26.3593 330.927 26.4234Z" fill="#DB9C7C"/>
        <path d="M332.249 29.8893C331.709 29.2904 331.078 28.7808 330.378 28.3794C330.303 28.3196 330.209 28.287 330.112 28.287C330.016 28.287 329.922 28.3196 329.846 28.3794C329.709 28.5167 329.726 28.9113 330.138 29.4261C330.446 29.8446 330.689 30.3074 330.859 30.7987C330.859 30.7987 331.442 31.2105 332.249 29.8893Z" fill="#EEA886"/>
        <path d="M328.491 31.8282C328.969 32.9061 329.728 33.8362 330.687 34.522C332.403 35.8089 332.249 33.1837 332.249 33.1837C331.946 32.7029 331.709 32.1835 331.545 31.6395C331.562 31.2963 328.491 31.8282 328.491 31.8282Z" fill="#EEA886"/>
        <path d="M338.957 42.6549C336.795 41.8485 329.006 33.1837 329.006 33.1837L331.923 31.588C333.948 33.7561 336.133 35.7693 338.46 37.6105C339.419 38.1138 340.469 38.4228 341.548 38.5198C341.771 38.5198 349.063 37.9536 349.715 37.782C351.16 37.1929 352.689 36.8395 354.245 36.7354C354.726 36.7858 355.184 36.9612 355.576 37.2442C355.967 37.5272 356.277 37.9079 356.476 38.3483C356.75 42.2088 350.848 42.1917 350.848 42.1917C350.848 42.1917 341.977 43.8217 338.957 42.6549Z" fill="#292C47"/>
        <path d="M343.247 89.5994C343.247 89.5994 341.377 91.1779 340.502 91.7956C339.627 92.4133 336.006 93.1339 335.697 93.5114C335.388 93.8889 335.697 94.987 336.332 94.987C338.545 94.9356 340.744 94.6304 342.887 94.0776C344.328 93.4771 347.193 93.6143 347.777 93.3055C348.36 92.9967 347.399 89.7366 347.039 89.0332C346.678 88.3297 343.247 89.5994 343.247 89.5994Z" fill="#292C47"/>
        <path d="M343.041 88.1581V89.7709C344.428 89.8866 345.825 89.7411 347.159 89.342L346.524 87.6262L343.041 88.1581Z" fill="#3D416B"/>
        <path d="M381.544 104.973C381.544 104.973 379.536 106.346 378.61 106.878C377.683 107.409 373.925 106.775 373.582 107.135C373.239 107.495 373.291 108.851 373.908 108.851C374.526 108.851 379.279 109.846 380.772 109.383C382.264 108.919 385.095 109.383 385.713 109.091C386.331 108.799 385.713 105.505 385.404 104.784C385.095 104.064 381.544 104.973 381.544 104.973Z" fill="#292C47"/>
        <path d="M381.286 103.617L381.544 104.973C382.766 105.16 384.013 105.108 385.215 104.819L384.907 103.412L381.286 103.617Z" fill="#3D416B"/>
        <path d="M358.157 61.4945C358.432 62.4038 359.135 64.3427 359.873 66.3845C360.027 66.8478 360.199 67.3111 360.371 67.7572C361.4 70.5025 362.361 73.0247 362.361 73.0247C363.854 76.4563 367.302 83.6112 368.984 84.8637C371.249 86.5795 381.269 104.527 381.269 104.527L385.782 103.995C385.782 103.995 380.875 90.5774 378.918 87.609C376.636 84.2804 373.05 79.9565 372.673 76.2676C372.433 73.9684 370.957 66.7791 370.957 66.7791C369.936 62.0845 368.144 57.5913 365.655 53.4817C364.729 52.1776 358.157 61.4945 358.157 61.4945Z" fill="#292C47"/>
        <path d="M353.336 60.688C353.336 60.688 339.009 64.4457 337.619 66.3845C336.229 68.3234 338.872 75.8386 339.077 76.7823C339.283 77.726 342.509 86.7168 342.646 88.3297C342.646 88.3297 346.078 88.7586 346.987 87.5061C346.987 87.5061 346.129 78.9271 345.357 75.9415C343.933 70.3137 348.257 70.2451 350.728 69.0783C353.199 67.9116 367.131 67.5513 366.908 65.1148C366.753 63.399 366.119 58.9722 366.119 58.9722C366.119 58.9722 363.751 57.0677 353.336 60.688Z" fill="#292C47"/>
        <path d="M353.61 35.6373C352.882 37.7288 352.41 39.9008 352.203 42.1059C352.203 44.4565 354.382 51.5256 354.537 52.8297C354.657 55.5026 354.249 58.1731 353.336 60.688L366.307 63.176C366.307 63.176 366.668 59.4527 366.616 54.9744C366.512 51.3521 365.865 47.7661 364.694 44.3364C363.387 39.9211 360.545 36.1181 356.682 33.6126L353.61 35.6373Z" fill="#CFBEB6"/>
        <path d="M351.603 34.0073L351.86 34.5735C351.86 34.7107 351.997 34.8823 352.066 35.0539C352.135 35.2255 352.186 35.3284 352.238 35.4829C352.621 36.3365 352.914 37.2278 353.113 38.1424C353.233 39.189 356.201 33.6298 356.201 33.6298C355.253 31.4 354.462 29.1067 353.833 26.7666C352.838 23.0261 351.603 34.0073 351.603 34.0073Z" fill="#EEA886"/>
        <path d="M355.995 33.1322C355.128 34.7319 354.03 36.1947 352.735 37.4732L353.13 39.6008L356.682 33.6126L355.995 33.1322Z" fill="#EDDAD3"/>
        <path d="M353.336 60.688C353.336 60.688 353.713 59.5556 353.782 59.2639L366.427 61.6146L366.307 63.176C366.307 63.176 357.059 61.5116 353.336 60.688Z" fill="#23263D"/>
        <path d="M366.05 48.6088C366.703 53.8442 368.616 58.843 371.626 63.176C372.227 64.051 364.763 65.1834 364.763 65.1834L366.05 48.6088Z" fill="#323657"/>
        <path d="M335.457 32.6003C335.939 33.4938 336.514 34.3336 337.173 35.1054C338.374 36.5123 338.889 33.5612 338.889 33.5612L338.477 32.1542C337.979 31.9554 337.437 31.8919 336.907 31.9703C336.377 32.0486 335.876 32.266 335.457 32.6003Z" fill="#EFAA88"/>
        <path d="M352.221 38.5713C351.988 39.1758 351.849 39.8123 351.809 40.4587C352.03 40.5581 352.27 40.6095 352.512 40.6095C352.755 40.6095 352.994 40.5581 353.216 40.4587C352.994 39.7775 352.657 39.1392 352.221 38.5713Z" fill="#D44040"/>
        <path d="M352.89 40.3557C353.761 43.6737 353.977 47.1299 353.525 50.5305C353.215 53.0339 352.698 55.5074 351.98 57.9256L350.693 59.2639L350.35 57.4452C351.691 52.9967 352.317 48.3635 352.203 43.7187C352.203 42.4662 352.083 40.0984 352.083 40.0984L352.89 40.3557Z" fill="#D44040"/>
        <path d="M353.147 43.8045C353.439 44.5766 353.696 45.3659 353.953 46.1723C354.503 47.8881 354.966 49.6897 355.36 51.4055C355.498 52.0232 355.618 52.6238 355.738 53.2243C356.693 57.6665 358.493 61.8838 361.04 65.6467C361.04 65.6467 366.788 65.1834 368.126 64.2398C367.817 58.7907 367.077 53.3747 365.913 48.0426C365.775 47.442 365.621 46.8243 365.467 46.2238C363.751 39.8238 361.04 34.0587 356.682 33.6126C356.613 33.6984 351.74 39.6866 353.147 43.8045Z" fill="#323657"/>
        <path d="M343.367 44.0962C341.102 43.6844 335.612 33.8014 335.612 33.8014L339.043 31.9998C340.055 33.8702 341.307 35.6006 342.766 37.1472C343.762 38.1252 345.048 39.9268 345.289 39.9611C345.529 39.9954 352.289 38.1252 352.89 37.8335C354.21 37.023 355.644 36.4156 357.145 36.0319C357.627 35.996 358.11 36.0863 358.546 36.2939C358.982 36.5015 359.357 36.8193 359.633 37.2158C360.611 40.9563 354.794 42.0201 354.794 42.0201C354.794 42.0201 346.593 44.6109 343.367 44.0962Z" fill="#323657"/>
        <path d="M103.566 248.792H170.894C172.669 248.792 174.371 249.497 175.626 250.752C176.881 252.007 177.586 253.709 177.586 255.483V303.526C177.586 305.301 176.881 307.003 175.626 308.258C174.371 309.513 172.669 310.218 170.894 310.218H103.566C101.796 310.218 100.098 309.514 98.8464 308.263C97.5947 307.011 96.8915 305.313 96.8915 303.543V255.501C96.887 254.621 97.0563 253.75 97.3897 252.936C97.7231 252.122 98.214 251.382 98.8343 250.759C99.4545 250.135 100.192 249.641 101.004 249.303C101.816 248.966 102.687 248.792 103.566 248.792Z" fill="url(#paint7_linear)"/>
        <path d="M166.725 258.177H133.009C132.128 258.177 131.414 258.892 131.414 259.773V261.712C131.414 262.593 132.128 263.308 133.009 263.308H166.725C167.606 263.308 168.321 262.593 168.321 261.712V259.773C168.321 258.892 167.606 258.177 166.725 258.177Z" fill="#E3F2FF"/>
        <path d="M166.725 268.146H133.009C132.128 268.146 131.414 268.86 131.414 269.742V272.35C131.414 273.231 132.128 273.945 133.009 273.945H166.725C167.606 273.945 168.321 273.231 168.321 272.35V269.742C168.321 268.86 167.606 268.146 166.725 268.146Z" fill="#E3F2FF"/>
        <path d="M111.768 276.245C112.725 276.566 113.726 276.739 114.736 276.759C117.295 276.792 119.762 275.807 121.596 274.021C123.43 272.236 124.48 269.796 124.516 267.237C124.516 267.014 124.516 266.791 124.516 266.585C124.462 265.636 124.271 264.7 123.95 263.805C123.39 262.276 122.451 260.915 121.223 259.846C119.994 258.778 118.515 258.038 116.923 257.696C115.331 257.354 113.679 257.42 112.12 257.889C110.561 258.358 109.146 259.213 108.006 260.377C106.867 261.54 106.041 262.972 105.605 264.541C105.169 266.11 105.138 267.763 105.513 269.347C105.889 270.932 106.659 272.395 107.753 273.601C108.846 274.807 110.228 275.717 111.768 276.245ZM107.632 267.014C107.659 265.324 108.277 263.696 109.377 262.413C110.478 261.131 111.993 260.273 113.659 259.99C115.326 259.707 117.039 260.016 118.501 260.863C119.964 261.71 121.084 263.042 121.668 264.629C121.912 265.295 122.05 265.996 122.08 266.705C122.088 266.865 122.088 267.025 122.08 267.185C122.065 268.753 121.534 270.273 120.57 271.509C119.883 272.395 119.001 273.111 117.992 273.599C116.983 274.087 115.874 274.335 114.753 274.323C113.995 274.312 113.242 274.185 112.523 273.946C111.079 273.45 109.829 272.512 108.951 271.264C108.073 270.016 107.611 268.522 107.632 266.996V267.014Z" fill="#E3F2FF"/>
        <path d="M120.587 271.526L122.491 273.002C121.574 274.181 120.397 275.131 119.052 275.78C117.706 276.429 116.229 276.758 114.736 276.742C113.726 276.722 112.725 276.549 111.768 276.228L112.54 273.946C113.259 274.185 114.012 274.312 114.77 274.323C115.889 274.334 116.996 274.088 118.005 273.603C119.013 273.118 119.897 272.408 120.587 271.526Z" fill="#E3F2FF"/>
        <path d="M122.08 266.705L124.499 266.568C124.499 266.773 124.499 266.997 124.499 267.22C124.466 269.315 123.755 271.343 122.474 273.002L120.57 271.526C121.532 270.282 122.062 268.758 122.08 267.185C122.088 267.025 122.088 266.865 122.08 266.705Z" fill="#E3F2FF"/>
        <path d="M122.08 266.705C122.05 265.996 121.912 265.295 121.668 264.629L123.933 263.805C124.254 264.7 124.445 265.636 124.499 266.585L122.08 266.705Z" fill="#E3F2FF"/>
        <path d="M109.057 259.378C110.262 258.472 111.663 257.862 113.148 257.594C114.632 257.327 116.158 257.411 117.604 257.84C119.05 258.269 120.376 259.03 121.475 260.063C122.573 261.096 123.415 262.371 123.933 263.788L121.668 264.629C121.279 263.563 120.645 262.604 119.817 261.829C118.989 261.053 117.991 260.483 116.902 260.164C115.814 259.845 114.665 259.787 113.55 259.993C112.435 260.199 111.383 260.664 110.481 261.352L109.057 259.378Z" fill="#E3F2FF"/>
        <g opacity="0.66">
            <path opacity="0.66" d="M105.213 299.528L118.185 289.439L129.44 295.565L145.157 283.657L156.43 290.005L168.321 281.924V299.528H105.213Z" fill="#E3F2FF"/>
        </g>
        <path d="M99.0878 301.398L108.713 306.683L118.391 291.481L106.689 287.415L99.0878 301.398Z" fill="#292C47"/>
        <path d="M99.7055 300.935L108.696 305.894L117.739 291.653L106.809 287.861L99.7055 300.935Z" fill="#E2D2CA"/>
        <path d="M96.4111 298.276C96.4111 298.276 98.1269 297.469 98.8132 297.057C99.4996 296.646 101.438 296.062 101.593 295.925C101.747 295.788 107.204 295.462 107.53 295.17C107.856 294.878 108.182 295.839 106.775 296.148C105.368 296.457 103.343 297.212 103.343 297.761C103.343 298.31 104.784 298.447 104.939 298.91C105.093 299.374 104.939 299.254 104.681 299.357C104.424 299.46 102.828 298.55 102.108 298.808C101.387 299.065 100.289 298.705 99.7398 298.808L96.5141 299.906L96.4111 298.276Z" fill="#EEA886"/>
        <path d="M99.5167 299.46L100.375 299.133C100.375 299.133 99.2937 296.611 98.8304 296.68C98.4204 296.738 98.0137 296.819 97.6122 296.92L99.5167 299.46Z" fill="#EAD8CF"/>
        <path d="M99.6197 299.906C99.5167 299.906 97.7838 296.474 97.7838 296.474L94.1119 296.972L96.0851 300.918L99.6197 299.906Z" fill="#DA9B5B"/>
        <path d="M109.177 304.779C109.177 304.779 110.584 303.509 111.27 303.063C111.956 302.617 113.226 300.987 113.415 300.884C113.603 300.781 116.057 295.736 116.452 295.582C116.846 295.427 116.074 294.707 115.233 295.925C114.393 297.143 112.9 298.55 112.351 298.55C111.802 298.55 112.351 296.834 111.905 296.577C111.459 296.32 111.545 296.577 111.373 296.663C111.201 296.749 111.373 298.722 110.892 299.305C110.412 299.888 110.275 301.021 109.88 301.501C109.486 301.982 107.598 304.109 107.598 304.109L109.177 304.779Z" fill="#EEA886"/>
        <path d="M78.927 372.484C78.927 372.484 78.6182 374.595 78.5839 374.921C78.5496 375.247 75.1523 374.732 75.1523 374.732L74.8949 372.21C76.2447 372.167 77.5954 372.259 78.927 372.484Z" fill="#424773"/>
        <path d="M78.5667 374.646C79.1632 375.358 79.863 375.977 80.6429 376.482C81.6552 377.031 83.268 377.254 83.8857 377.82C84.5034 378.387 85.4814 380.034 81.2091 379.999C76.9367 379.965 74.8949 380.24 74.4488 379.553C74.0027 378.867 75.1008 374.509 75.1008 374.509C76.2365 374.777 77.4133 374.824 78.5667 374.646Z" fill="#292C47"/>
        <path d="M102.948 372.484C102.948 372.484 102.657 374.595 102.605 374.921C102.554 375.247 99.1735 374.732 99.1735 374.732L98.899 372.21C100.255 372.166 101.611 372.258 102.948 372.484Z" fill="#424773"/>
        <path d="M102.554 374.646C103.161 375.361 103.872 375.98 104.664 376.482C105.694 377.031 109.468 377.494 110.069 378.061C110.669 378.627 111.236 380.154 105.248 379.999C100.992 379.879 98.9333 380.24 98.4701 379.553C98.0068 378.867 99.1392 374.509 99.1392 374.509C100.254 374.802 101.419 374.849 102.554 374.646Z" fill="#292C47"/>
        <path d="M81.638 318.179C79.8636 321.055 78.8645 324.342 78.7383 327.719C78.9614 332.231 77.5887 337.173 77.1255 341.891C76.5936 347.159 74.4316 359.616 74.363 362.481C74.2944 365.346 74.689 374.286 74.689 374.286L79.0128 374.389C79.0128 374.389 82.6332 352.598 83.5769 350.367C84.5206 348.137 89.2219 332.249 89.3248 330.464C89.4278 328.68 81.638 318.179 81.638 318.179Z" fill="#292C47"/>
        <path d="M98.2127 318.865C98.2127 318.865 100.581 331.253 100.889 334.016C101.198 336.778 101.421 347.399 101.576 349.132C101.73 350.865 102.622 371.746 103.446 374.32H97.9382C97.9382 374.32 93.7001 359.135 93.7001 352.015C93.7001 344.894 90.4229 336.298 88.3125 331.579C86.2021 326.861 81.4493 326.724 80.0595 317.853C80.0595 317.922 96.4454 316.069 98.2127 318.865Z" fill="#292C47"/>
        <path d="M86.8884 276.245C86.8884 276.245 91.1264 274.666 93.0653 277.96C95.0041 281.255 94.7811 287.62 92.705 288.41C90.6288 289.199 87.3688 288.787 86.2879 286.694C85.0993 284.59 84.4068 282.243 84.2632 279.831C84.3201 279.047 84.5964 278.295 85.0607 277.661C85.5249 277.026 86.1583 276.536 86.8884 276.245Z" fill="#EEA886"/>
        <path d="M92.2417 288.375C92.144 288.949 92.1852 289.537 92.3618 290.091C92.6535 290.657 86.8884 290.675 86.8884 290.675C86.5749 288.768 86.1219 286.887 85.5329 285.047C84.6407 282.439 92.2417 288.375 92.2417 288.375Z" fill="#EEA886"/>
        <path d="M85.5329 285.03C85.5329 285.03 85.9275 285.682 87.5575 285.424C89.1876 285.167 91.1607 283.005 91.8299 282.765C92.4991 282.525 92.5162 282.13 92.5162 282.13L92.9452 282.748H93.6658C93.6658 282.748 92.9967 280.826 93.9918 280.037C94.987 279.247 92.9623 273.774 87.7634 275.593C87.7634 275.593 83.7656 276.691 83.9029 279.024C83.9454 281.129 84.5052 283.192 85.5329 285.03Z" fill="#3A3F47"/>
        <path d="M92.6535 289.971C92.6535 289.971 92.6535 288.89 92.1388 288.787C90.1614 288.507 88.1642 288.392 86.1678 288.444V289.697C86.1678 289.697 87.3688 290.452 92.6535 289.971Z" fill="#E2D2CA"/>
        <path d="M92.4133 281.392C92.3103 281.015 91.3495 279.917 90.972 281.083C90.5945 282.25 91.5382 283.829 92.053 283.691C92.5677 283.554 92.6535 282.267 92.4133 281.392Z" fill="#EEA886"/>
        <path d="M78.1035 330.087C80.3989 330.694 82.7402 331.113 85.1039 331.339C89.5136 331.837 100.546 331.168 100.546 330.653C100.546 330.138 98.1612 311.213 98.2985 310.235C98.4358 309.257 98.5215 305.791 98.5215 305.791C98.8942 308.211 99.6349 310.56 100.718 312.757C101.13 313.512 102.554 315.914 103.24 315.365C106.534 312.723 111.665 302.771 111.991 302.702C111.716 302.582 109.554 301.587 109.262 301.484C107.796 302.656 106.451 303.972 105.248 305.413C104.596 306.117 104.149 306.632 104.149 306.632C103.72 305.688 102.211 299.768 101.73 297.727C101.222 296.166 100.922 294.545 100.838 292.905C97.595 291.996 92.6535 289.971 92.6535 289.971L86.1678 289.697C83.3593 290.293 80.5959 291.084 77.8976 292.064C77.6745 292.167 77.6745 297.366 77.0568 298.722L78.9957 302.823C78.9957 302.823 80.1281 310.921 80.3512 314.524C80.5056 316.24 78.1035 330.087 78.1035 330.087Z" fill="#323657"/>
        <path d="M76.8509 305.533C77.1616 306.096 77.6687 306.523 78.275 306.735C78.608 306.864 78.9699 306.899 79.3217 306.837H79.5619L84.0058 306.014C84.0058 306.014 84.9838 294.844 77.949 292.167C77.7603 292.185 75.2895 300.523 76.8509 305.533Z" fill="#323657"/>
        <path d="M78.275 306.735C78.608 306.864 78.9699 306.899 79.3217 306.837H79.5619L79.1329 301.124L78.275 306.735Z" fill="#252840"/>
        <path d="M104.149 306.7L104.681 308.982C104.984 307.86 105.173 306.711 105.248 305.551C104.664 306.186 104.149 306.7 104.149 306.7Z" fill="#252840"/>
        <path d="M85.6873 276.536C85.6873 276.536 80.1624 275.884 85.6873 285.115V276.536Z" fill="#3A3F47"/>
        <path d="M113.929 290.657L114.496 289.697L110.069 288.17L109.503 289.13L113.929 290.657Z" fill="#292C47"/>
</g>
<defs>
<linearGradient id="paint0_linear" x1="342.904" y1="467.3" x2="469.187" y2="467.3" gradientUnits="userSpaceOnUse">
            <stop stop-color="#CCFBFF"/>
            <stop offset="1" stop-color="#CCD8FF"/>
        </linearGradient>
<linearGradient id="paint1_linear" x1="519.117" y1="228.683" x2="247.385" y2="151.797" gradientUnits="userSpaceOnUse">
            <stop stop-color="#FF9F55"/>
            <stop offset="1" stop-color="#FFD255"/>
        </linearGradient>
<linearGradient id="paint2_linear" x1="49763.1" y1="31883.6" x2="44479.9" y2="21061.2" gradientUnits="userSpaceOnUse">
            <stop stop-color="#FF9F55"/>
            <stop offset="1" stop-color="#FFD255"/>
        </linearGradient>
<linearGradient id="paint3_linear" x1="66102.5" y1="50320.2" x2="37932.7" y2="14070" gradientUnits="userSpaceOnUse">
            <stop stop-color="#FF9F55"/>
            <stop offset="1" stop-color="#FFD255"/>
        </linearGradient>
<linearGradient id="paint4_linear" x1="4211.36" y1="9493.67" x2="7926.15" y2="9493.67" gradientUnits="userSpaceOnUse">
            <stop stop-color="#FF9F55"/>
            <stop offset="1" stop-color="#FFD255"/>
        </linearGradient>
<linearGradient id="paint5_linear" x1="58.6977" y1="382.058" x2="403.043" y2="382.058" gradientUnits="userSpaceOnUse">
            <stop stop-color="#40D5E6"/>
            <stop offset="1" stop-color="#5577FF"/>
        </linearGradient>
<linearGradient id="paint6_linear" x1="52647.4" y1="1905.6" x2="102450" y2="1905.6" gradientUnits="userSpaceOnUse">
            <stop stop-color="#40D5E6"/>
            <stop offset="1" stop-color="#5577FF"/>
        </linearGradient>
<linearGradient id="paint7_linear" x1="4652.9" y1="10255.1" x2="8448.76" y2="10255.1" gradientUnits="userSpaceOnUse">
            <stop stop-color="#FF9F55"/>
            <stop offset="1" stop-color="#FFD255"/>
        </linearGradient>
<clipPath id="clip0">
<rect width="600" height="530.424" fill="white"/>
</clipPath>
</defs>
</svg>
