<svg width="158" height="100" viewBox="0 0 158 100" fill="none" xmlns="http://www.w3.org/2000/svg">
<rect width="158" height="100" fill="#F5F6F7"/>
<path d="M45.4053 54H46.6173V48.132L49.5093 53.52L52.4013 48.132V54H53.6133V45.756H52.4013L49.5093 51.144L46.6173 45.756H45.4053V54ZM58.1301 47.652C57.4461 47.652 56.6661 47.832 55.7781 48.276L56.2101 49.152C56.7501 48.876 57.3501 48.636 57.9621 48.636C59.1981 48.636 59.5581 49.464 59.5581 50.244V50.436C58.9581 50.232 58.2981 50.1 57.6861 50.1C56.3181 50.1 55.2021 50.928 55.2021 52.164C55.2021 53.376 56.1741 54.144 57.4941 54.144C58.2501 54.144 59.1021 53.796 59.5581 53.148V54H60.7221V50.244C60.7221 48.708 59.7981 47.652 58.1301 47.652ZM57.7221 53.208C56.9421 53.208 56.3421 52.8 56.3421 52.128C56.3421 51.456 57.0381 50.988 57.8661 50.988C58.4781 50.988 59.0541 51.072 59.5581 51.228V52.056C59.3541 52.824 58.4901 53.208 57.7221 53.208ZM65.5962 47.652C64.7562 47.652 64.0002 48.084 63.6282 48.696V47.796H62.4402V54H63.6282V49.98C63.7242 49.248 64.4682 48.684 65.3322 48.684C66.1722 48.684 66.7602 49.332 66.7602 50.256V54H67.9242V50.052C67.9242 48.648 66.9642 47.652 65.5962 47.652ZM73.8958 47.796V51.816C73.7998 52.548 73.0558 53.112 72.1918 53.112C71.3518 53.112 70.7638 52.464 70.7638 51.54V47.796H69.5998V51.744C69.5998 53.148 70.5598 54.144 71.9278 54.144C72.7678 54.144 73.5238 53.712 73.8958 53.1V54H75.0838V47.796H73.8958ZM79.4114 47.652C78.7274 47.652 77.9474 47.832 77.0594 48.276L77.4914 49.152C78.0314 48.876 78.6314 48.636 79.2434 48.636C80.4794 48.636 80.8394 49.464 80.8394 50.244V50.436C80.2394 50.232 79.5794 50.1 78.9674 50.1C77.5994 50.1 76.4834 50.928 76.4834 52.164C76.4834 53.376 77.4554 54.144 78.7754 54.144C79.5314 54.144 80.3834 53.796 80.8394 53.148V54H82.0034V50.244C82.0034 48.708 81.0794 47.652 79.4114 47.652ZM79.0034 53.208C78.2234 53.208 77.6234 52.8 77.6234 52.128C77.6234 51.456 78.3194 50.988 79.1474 50.988C79.7594 50.988 80.3354 51.072 80.8394 51.228V52.056C80.6354 52.824 79.7714 53.208 79.0034 53.208ZM83.7214 54H84.8974V45.612H83.7214V54ZM92.9653 52.884C92.8333 53.016 92.5933 53.112 92.3293 53.112C91.9813 53.112 91.6933 52.8 91.6933 52.368V48.804H93.1573V47.796H91.6933V46.092H90.5293V47.796H89.5933V48.804H90.5293V52.452C90.5293 53.448 91.2013 54.144 92.1613 54.144C92.6053 54.144 93.0613 53.976 93.3973 53.7L92.9653 52.884ZM95.1961 46.764C95.5801 46.764 95.9041 46.428 95.9041 46.044C95.9041 45.672 95.5801 45.336 95.1961 45.336C94.7881 45.336 94.4761 45.672 94.4761 46.044C94.4761 46.428 94.7881 46.764 95.1961 46.764ZM94.5961 54H95.7841V47.796H94.5961V54ZM104.439 47.652C103.503 47.652 102.711 48.132 102.423 48.9C102.063 48.132 101.331 47.652 100.431 47.652C99.6387 47.652 98.9907 48.048 98.6787 48.66V47.796H97.4907V54H98.6787V50.124C98.6787 49.272 99.3027 48.684 100.191 48.684C100.971 48.684 101.511 49.32 101.511 50.232V54H102.675V50.124C102.675 49.272 103.299 48.684 104.187 48.684C104.967 48.684 105.507 49.32 105.507 50.232V54H106.671V50.052C106.671 48.648 105.735 47.652 104.439 47.652ZM111.222 53.088C110.154 53.088 109.398 52.344 109.242 51.312H114.126C114.126 49.092 113.034 47.652 111.138 47.652C109.422 47.652 108.042 49.02 108.042 50.88C108.042 52.788 109.506 54.144 111.234 54.144C112.11 54.144 113.19 53.772 113.742 53.184L112.998 52.416C112.626 52.8 111.87 53.088 111.222 53.088ZM111.186 48.708C112.254 48.708 112.842 49.404 112.974 50.364H109.254C109.446 49.356 110.226 48.708 111.186 48.708Z" fill="#898A8C"/>
</svg>
