<svg width="40" height="40" viewBox="0 0 40 40" fill="none" xmlns="http://www.w3.org/2000/svg">
<path d="M40 31.4283C40 32.7342 38.9414 33.7929 37.6355 33.7929H2.36445C1.05859 33.7929 0 32.7342 0 31.4283V8.57165C0 7.26572 1.05859 6.20712 2.36445 6.20712H37.6355C38.9415 6.20712 40 7.2658 40 8.57165V31.4283Z" fill="#92DBEF"/>
<path d="M25.9727 11.5992C25.0961 10.5973 23.4682 10.0966 21.2145 10.0966H14.9533C14.5774 10.0966 14.202 10.4726 14.0767 10.8477L11.5723 27.2513C11.5723 27.6275 11.8228 27.8774 12.0728 27.8774H15.9546L16.9564 21.742V21.9924C17.0819 21.6164 17.4571 21.2413 17.8331 21.2413H19.7116C23.3428 21.2413 26.097 19.7387 26.9737 15.6059V15.2303C26.8486 15.2303 26.8486 15.2303 26.9737 15.2303C27.0991 13.6029 26.8487 12.6009 25.9727 11.5992Z" fill="#263B80"/>
<path d="M26.9724 15.6059V15.2303C26.9733 15.2179 26.9738 15.2063 26.9746 15.194C26.752 15.0392 26.5434 14.9313 26.3839 14.8613C25.6236 14.5471 24.8461 14.4879 24.4872 14.4789L24.4853 14.4774H22.6592C22.6592 14.4774 22.6608 14.4783 22.6616 14.4788H18.8311C18.1798 14.5025 18.0003 15.0276 17.9533 15.256L16.9551 21.742V21.8959V21.9924C17.0805 21.6164 17.4558 21.2413 17.8318 21.2413H19.7103C23.3415 21.2413 26.0957 19.7386 26.9724 15.6059Z" fill="#232C65"/>
<path d="M28.2037 16.7823C27.9207 16.0016 27.42 15.5028 26.9758 15.1939C26.9749 15.2063 26.9744 15.2178 26.9736 15.2302V15.6059C26.0969 19.7385 23.3427 21.2412 19.7115 21.2412H17.833C17.457 21.2412 17.0817 21.6163 16.9562 21.9923V21.8958C16.942 21.9278 16.9287 21.9601 16.918 21.9923L16.2105 26.3085L15.9544 27.8774H15.9534L15.666 29.6307C15.666 29.881 15.7914 30.1309 16.1666 30.1309H19.288C19.9159 30.1309 20.1132 29.6424 20.1738 29.3792L20.2003 29.2157V29.2156L20.7997 25.4981C20.7997 25.4981 20.8778 24.6216 21.7329 24.6216H22.0523C25.1828 24.6216 27.6872 23.3697 28.3132 19.6133C28.4873 18.566 28.4787 17.5806 28.2037 16.7823Z" fill="#139AD6"/>
</svg>
