<svg width="18" height="15" viewBox="0 0 18 15" fill="none" xmlns="http://www.w3.org/2000/svg">
<path d="M18 1.73137C17.3306 2.025 16.6174 2.21962 15.8737 2.31412C16.6388 1.85737 17.2226 1.13962 17.4971 0.2745C16.7839 0.69975 15.9964 1.00013 15.1571 1.16775C14.4799 0.446625 13.5146 0 12.4616 0C10.4186 0 8.77387 1.65825 8.77387 3.69113C8.77387 3.98363 8.79862 4.26487 8.85938 4.53262C5.7915 4.383 3.07687 2.91263 1.25325 0.67275C0.934875 1.22513 0.748125 1.85738 0.748125 2.538C0.748125 3.816 1.40625 4.94887 2.38725 5.60475C1.79437 5.5935 1.21275 5.42138 0.72 5.15025V5.19075C0.72 6.984 1.99912 8.4735 3.6765 8.81662C3.37612 8.89875 3.04875 8.93812 2.709 8.93812C2.47275 8.93812 2.23425 8.92463 2.01038 8.87512C2.4885 10.3365 3.84525 11.4109 5.4585 11.4457C4.203 12.4279 2.60888 13.0196 0.883125 13.0196C0.5805 13.0196 0.29025 13.0061 0 12.969C1.63462 14.0231 3.57188 14.625 5.661 14.625C12.4515 14.625 16.164 9 16.164 4.12425C16.164 3.96112 16.1584 3.80363 16.1505 3.64725C16.8829 3.1275 17.4982 2.47837 18 1.73137Z" fill="#A7A8AA"/>
</svg>
