<svg width="44" height="44" viewBox="0 0 44 44" fill="none" xmlns="http://www.w3.org/2000/svg">
<circle cx="22" cy="22" r="22" fill="#FADBAE"/>
<path d="M21.8806 27L19.4726 23.584C20.8586 23.15 21.7966 22.03 21.7966 20.574C21.7966 18.698 20.2566 17.382 18.1986 17.382H14.0126V27H15.7626V23.766H17.6246L19.8926 27H21.8806ZM15.7626 18.992H18.0026C19.1926 18.992 20.0186 19.594 20.0186 20.574C20.0186 21.554 19.1926 22.156 18.0026 22.156H15.7626V18.992ZM23.4898 27H25.2398V24.256L26.5418 22.856L29.7198 27H31.8758L27.7458 21.624L31.5958 17.382H29.4538L25.2398 22.086V17.382H23.4898V27Z" fill="#DC8C13"/>
</svg>
