<svg width="40" height="40" viewBox="0 0 40 40" fill="none" xmlns="http://www.w3.org/2000/svg">
<path d="M40 31.4282C40 32.7342 38.9414 33.7928 37.6355 33.7928H2.36445C1.05859 33.7929 0 32.7342 0 31.4282V8.57165C0 7.26572 1.05859 6.20712 2.36445 6.20712H37.6355C38.9415 6.20712 40 7.2658 40 8.57165V31.4282Z" fill="white"/>
<path d="M8.87797 20.159L7.93875 15.6534C7.7782 15.0321 7.31102 14.8473 6.72727 14.8228H2.42117L2.38281 15.0287C5.73664 15.8417 7.95578 17.8031 8.87797 20.159Z" fill="#F79F1A"/>
<path d="M18.8559 14.9135H16.0736L14.3359 25.1109H17.1136L18.8559 14.9135Z" fill="#059BBF"/>
<path d="M10.573 25.1007L14.9487 14.9204H12.0041L9.28203 21.8757L8.99148 20.8256C8.45789 19.5622 6.93289 17.7439 5.14258 16.5992L7.63086 25.1041L10.573 25.1007Z" fill="#059BBF"/>
<path d="M26.791 21.7773C26.8013 20.6196 26.058 19.7366 24.4561 19.0072C23.4826 18.5361 22.8892 18.222 22.8963 17.7439C22.8963 17.3216 23.3988 16.8679 24.4876 16.8679C25.3986 16.8539 26.0545 17.0528 26.5676 17.2587L26.819 17.374L27.196 15.1648C26.6445 14.9588 25.7824 14.739 24.7042 14.739C21.9576 14.739 20.0242 16.1211 20.0067 18.1034C19.9892 19.5692 21.3889 20.3859 22.4427 20.8744C23.5245 21.3723 23.8875 21.691 23.8806 22.1377C23.8736 22.8208 23.0184 23.1323 22.2193 23.1323C21.106 23.1323 20.5162 22.9787 19.6014 22.5977L19.2459 22.4344L18.8555 24.7195C19.5041 25.003 20.7045 25.2508 21.9506 25.2611C24.8715 25.2611 26.7701 23.8966 26.791 21.7773Z" fill="#059BBF"/>
<path d="M30.0975 23.5825C30.4151 23.5825 33.2523 23.586 33.6573 23.586C33.7411 23.9411 33.9959 25.1145 33.9959 25.1145H36.5748L34.3238 14.924H32.1776C31.5109 14.924 31.0155 15.1055 30.7223 15.7685L26.5938 25.1145H29.515C29.5148 25.1145 29.9893 23.8583 30.0975 23.5825ZM32.0029 18.6442C31.9891 18.6721 32.2334 18.0544 32.373 17.6705L32.5613 18.5499C32.5613 18.5499 33.092 20.986 33.2035 21.4955H30.8966C31.127 20.9093 32.0029 18.6442 32.0029 18.6442Z" fill="#059BBF"/>
<path d="M37.6355 6.20712H2.36445C1.05859 6.20712 0 7.26572 0 8.57165V11.0257H40V8.57165C40 7.26572 38.9415 6.20712 37.6355 6.20712Z" fill="#059BBF"/>
<path d="M37.6355 33.7929H2.36445C1.05859 33.7929 0 32.7342 0 31.4284V28.9743H40V31.4284C40 32.7342 38.9415 33.7929 37.6355 33.7929Z" fill="#F79F1A"/>
</svg>
